<?xml version="1.0" encoding="UTF-8"?>
<svg id="Layer_1" xmlns="http://www.w3.org/2000/svg" viewBox="0 0 403.19 131.16">
  <defs>
    <style>
      .cls-1 {
        fill: #fff;
      }
    </style>
  </defs>
  <path class="cls-1" d="M26.46,37.56l.36-.24v8.88l-.12.12-18.6,17.88,18.6,17.88.12.12v9l-.36-.24L2.28,67.92l-.12-.12v-7.2l.12-.12,24.18-22.92ZM26.34,38.76L2.64,61.32v5.76l23.7,22.68v-6.84l-18.9-18.24-.42-.48.42-.48,18.9-18.24v-6.72Z"/>
  <path class="cls-1" d="M49.02,27.84h.18l.06.24,14.52,64.32c.48,2.16,1.08,3.72,1.8,4.68.68.88,1.34,1.32,1.98,1.32h1.2v4.08h-13.44v-4.08h1.2c.4,0,.76-.28,1.08-.84.32-.56.48-1.36.48-2.4l-.18-1.8-3-14.52h-13.74l-3,14.28c-.16.64-.24,1.32-.24,2.04,0,1.04.16,1.84.48,2.4.32.56.66.84,1.02.84h1.2v4.08h-12.6v-4.08h1.2c.64,0,1.32-.44,2.04-1.32.72-.96,1.34-2.52,1.86-4.68l12.12-51.72,1.08-4.68.78-4.2c.2-1.44.32-2.6.36-3.48v-.48h1.56ZM48.84,28.8h-.9c-.08.88-.22,1.96-.42,3.24l-.72,4.2v.12l-1.08,4.8-12.12,51.72c-.6,2.32-1.3,3.96-2.1,4.92-.8,1.04-1.56,1.56-2.28,1.56h-.72v2.16h11.64v-2.16h-.72c-.52,0-.98-.36-1.38-1.08-.4-.72-.6-1.76-.6-3.12,0-.88.08-1.72.24-2.52l3.06-14.52.06-.24h14.46l.06.24,3.06,14.88v.12l.18,1.92v.12c0,1.36-.22,2.4-.66,3.12-.44.72-.9,1.08-1.38,1.08h-.72v2.16h12.48v-2.16h-.72c-.72,0-1.48-.52-2.28-1.56-.76-.96-1.42-2.6-1.98-4.92l-14.46-64.08ZM42.12,73.32h-.36l.12-.72,6-28.32.24-.96.24.96,5.82,28.32.12.72h-12.18ZM42.48,72.36h11.1l-5.46-26.64-5.64,26.64Z"/>
  <path class="cls-1" d="M100.5,30v-.48h.24l12.06.24h.24v4.08h-1.68c-.68,0-1.26.44-1.74,1.32-.48.88-.76,1.92-.84,3.12v49.68l.06,5.52.24,5.16.3,5.16v.48h-1.68l-.06-.12-29.28-55.56v45.24c.08,1.28.36,2.4.84,3.36.48.88,1.04,1.32,1.68,1.32h1.74v4.08h-12.48v-4.08h1.74c.64,0,1.22-.44,1.74-1.32.48-.96.74-2.08.78-3.36v-49.92c0-1.92-.04-3.8-.12-5.64l-.24-5.04-.36-4.8-.06-.6h1.86l.06.12,29.22,55.08v-45c-.08-1.2-.36-2.24-.84-3.12-.48-.88-1.04-1.32-1.68-1.32h-1.74v-3.6ZM100.98,30.48v2.16h1.26c.8,0,1.48.52,2.04,1.56.56,1.04.88,2.32.96,3.84v47.16l-.42-.72-29.58-55.68h-1.02l.3,4.32v.12l.24,4.92c.08,1.92.12,3.84.12,5.76v49.92c-.04,1.6-.36,2.92-.96,3.96-.56,1.12-1.24,1.68-2.04,1.68h-1.26v2.16h11.52v-2.16h-1.26c-.8,0-1.48-.56-2.04-1.68-.56-1.04-.88-2.36-.96-3.96v-47.4l.42.72,29.64,56.16h.96l-.3-4.68-.18-5.04-.12-5.64v-49.68c.08-1.52.4-2.8.96-3.84.56-1.04,1.26-1.56,2.1-1.56h1.2v-2.16l-11.58-.24Z"/>
  <path class="cls-1" d="M132.48,102v.48h-14.7v-4.08h1.5c.88,0,1.62-.48,2.22-1.44.6-.96.94-2.08,1.02-3.36v-55.08c-.08-1.28-.42-2.4-1.02-3.36-.6-.96-1.34-1.44-2.22-1.44h-1.5v-4.2h14.7v4.2h-1.5c-.84,0-1.56.48-2.16,1.44-.6.96-.94,2.04-1.02,3.24v55.2c.04,1.28.36,2.4.96,3.36.6.96,1.34,1.44,2.22,1.44h1.5v3.6ZM132,101.52v-2.16h-1.02c-.96,0-1.8-.56-2.52-1.68-.72-1.12-1.1-2.48-1.14-4.08v-55.2c.08-1.52.48-2.84,1.2-3.96.72-1.12,1.54-1.68,2.46-1.68h1.02v-2.28h-13.74v2.28h1.02c.96,0,1.8.56,2.52,1.68.72,1.12,1.12,2.48,1.2,4.08v55.08c-.08,1.6-.48,2.96-1.2,4.08-.72,1.12-1.56,1.68-2.52,1.68h-1.02v2.16h13.74Z"/>
  <path class="cls-1" d="M177.6,27.84h.18l.06.36,4.68,65.16c.16,1.68.54,2.96,1.14,3.84.64.88,1.36,1.32,2.16,1.32h1.62v4.08h-13.62v-3.96h1.62c.36,0,.68-.24.96-.72.28-.48.42-1.16.42-2.04-.52-7.92-1-15.44-1.44-22.56-.44-6.64-.88-13.6-1.32-20.88l-9.9,39.12-.3,1.32-.6,2.88-.72,3.96c-.24,1.44-.42,2.84-.54,4.2l-.06.36h-1.56l-.12-.24-13.08-50.52-2.4,42.12c0,.8.14,1.48.42,2.04.32.56.66.84,1.02.84h1.62v3.96h-12.24v-4.08h1.56c.88,0,1.62-.48,2.22-1.44.6-.88.96-2.2,1.08-3.96l4.56-64.8.06-.36h1.62l.12.24,14.88,57.36,14.34-57.36.12-.24h1.44ZM177.42,28.8h-1.02l-14.46,57.96-.24.84-.24-.84-15-57.96h-1.02l-4.5,64.44c-.12,1.92-.54,3.44-1.26,4.56-.72,1.04-1.56,1.56-2.52,1.56h-1.08v2.16h11.28v-2.04h-1.14c-.52,0-.96-.36-1.32-1.08-.4-.72-.6-1.68-.6-2.88l2.46-43.68.06-1.68.42,1.44,13.38,51.72h.96c.12-1.28.28-2.56.48-3.84l.72-3.96v-.12l.66-3,.24-1.32,10.26-40.56.36-1.44.12,1.68c.48,7.84.94,15.32,1.38,22.44.48,7.12.98,14.64,1.5,22.56v.12c0,1.2-.18,2.12-.54,2.76-.36.64-.8.96-1.32.96h-1.14v2.04h12.66v-2.16h-1.14c-.88,0-1.68-.52-2.4-1.56-.76-1.04-1.22-2.52-1.38-4.44l-4.62-64.68Z"/>
  <path class="cls-1" d="M208.38,27.84h.18l.06.24,14.52,64.32c.48,2.16,1.08,3.72,1.8,4.68.68.88,1.34,1.32,1.98,1.32h1.2v4.08h-13.44v-4.08h1.2c.4,0,.76-.28,1.08-.84.32-.56.48-1.36.48-2.4l-.18-1.8-3-14.52h-13.74l-3,14.28c-.16.64-.24,1.32-.24,2.04,0,1.04.16,1.84.48,2.4.32.56.66.84,1.02.84h1.2v4.08h-12.6v-4.08h1.2c.64,0,1.32-.44,2.04-1.32.72-.96,1.34-2.52,1.86-4.68l12.12-51.72,1.08-4.68.78-4.2c.2-1.44.32-2.6.36-3.48v-.48h1.56ZM208.2,28.8h-.9c-.08.88-.22,1.96-.42,3.24l-.72,4.2v.12l-1.08,4.8-12.12,51.72c-.6,2.32-1.3,3.96-2.1,4.92-.8,1.04-1.56,1.56-2.28,1.56h-.72v2.16h11.64v-2.16h-.72c-.52,0-.98-.36-1.38-1.08-.4-.72-.6-1.76-.6-3.12,0-.88.08-1.72.24-2.52l3.06-14.52.06-.24h14.46l.06.24,3.06,14.88v.12l.18,1.92v.12c0,1.36-.22,2.4-.66,3.12-.44.72-.9,1.08-1.38,1.08h-.72v2.16h12.48v-2.16h-.72c-.72,0-1.48-.52-2.28-1.56-.76-.96-1.42-2.6-1.98-4.92l-14.46-64.08ZM201.48,73.32h-.36l.12-.72,6-28.32.24-.96.24.96,5.82,28.32.12.72h-12.18ZM201.84,72.36h11.1l-5.46-26.64-5.64,26.64Z"/>
  <path class="cls-1" d="M235.8,29.4h18.96l1.86-.24,1.98-.6,1.8-.72,1.32-.84.3-.12v16.8h-2.1v-3.24c0-1.2-.2-2.24-.6-3.12-.44-.88-.98-1.36-1.62-1.44h-9.78v57.72c.04,1.28.32,2.4.84,3.36.52.96,1.14,1.44,1.86,1.44h1.44v4.08h-13.5v-4.08h1.44c.72,0,1.34-.48,1.86-1.44.48-.96.76-2.12.84-3.48v-57.6h-9.84c-.64.08-1.16.56-1.56,1.44-.4.88-.6,1.92-.6,3.12v3.24h-2.16v-16.8l.3.12,1.32.84,1.8.72,1.98.6,1.86.24ZM235.8,30.36l-1.86-.24h-.06l-1.98-.6-1.86-.84-1.02-.6v14.64h1.2v-2.28c0-1.52.24-2.8.72-3.84.48-1.04,1.12-1.6,1.92-1.68h10.32v58.56c-.08,1.68-.42,3.08-1.02,4.2-.56,1.12-1.28,1.68-2.16,1.68h-.96v2.16h12.54v-2.16h-.96c-.88,0-1.62-.56-2.22-1.68-.6-1.12-.92-2.48-.96-4.08v-58.68h10.26c.8.08,1.44.64,1.92,1.68.52,1.04.78,2.32.78,3.84v2.28h1.14v-14.64l-1.02.6-1.86.84-1.98.6h-.06l-1.86.24h-18.96Z"/>
  <path class="cls-1" d="M279.78,102v.48h-14.7v-4.08h1.5c.88,0,1.62-.48,2.22-1.44.6-.96.94-2.08,1.02-3.36v-55.08c-.08-1.28-.42-2.4-1.02-3.36-.6-.96-1.34-1.44-2.22-1.44h-1.5v-4.2h14.7v4.2h-1.5c-.84,0-1.56.48-2.16,1.44-.6.96-.94,2.04-1.02,3.24v55.2c.04,1.28.36,2.4.96,3.36.6.96,1.34,1.44,2.22,1.44h1.5v3.6ZM279.3,101.52v-2.16h-1.02c-.96,0-1.8-.56-2.52-1.68-.72-1.12-1.1-2.48-1.14-4.08v-55.2c.08-1.52.48-2.84,1.2-3.96.72-1.12,1.54-1.68,2.46-1.68h1.02v-2.28h-13.74v2.28h1.02c.96,0,1.8.56,2.52,1.68.72,1.12,1.12,2.48,1.2,4.08v55.08c-.08,1.6-.48,2.96-1.2,4.08-.72,1.12-1.56,1.68-2.52,1.68h-1.02v2.16h13.74Z"/>
  <path class="cls-1" d="M304.86,27.84c2.84,0,5.48.92,7.92,2.76,2.48,1.92,4.66,4.56,6.54,7.92,1.84,3.36,3.3,7.36,4.38,12,1.08,4.64,1.62,9.8,1.62,15.48s-.54,10.84-1.62,15.48c-1.08,4.64-2.54,8.64-4.38,12-1.88,3.36-4.06,6-6.54,7.92-2.44,1.84-5.08,2.76-7.92,2.76s-5.5-.92-7.98-2.76c-2.48-1.92-4.66-4.56-6.54-7.92-1.84-3.36-3.3-7.36-4.38-12-1.08-4.64-1.62-9.8-1.62-15.48s.54-10.84,1.62-15.48c1.08-4.64,2.54-8.64,4.38-12,1.88-3.36,4.06-6,6.54-7.92,2.48-1.84,5.14-2.76,7.98-2.76ZM304.86,28.8c-2.76,0-5.36.92-7.8,2.76-2.44,1.76-4.56,4.28-6.36,7.56-1.84,3.28-3.28,7.2-4.32,11.76-1.04,4.56-1.56,9.6-1.56,15.12s.52,10.56,1.56,15.12c1.04,4.56,2.48,8.48,4.32,11.76,1.8,3.28,3.92,5.8,6.36,7.56,2.44,1.84,5.04,2.76,7.8,2.76s5.36-.92,7.8-2.76c2.4-1.76,4.5-4.28,6.3-7.56,1.84-3.28,3.28-7.2,4.32-11.76,1.04-4.56,1.56-9.6,1.56-15.12s-.52-10.56-1.56-15.12c-1.04-4.56-2.48-8.48-4.32-11.76-1.8-3.28-3.9-5.8-6.3-7.56-2.44-1.84-5.04-2.76-7.8-2.76ZM304.86,98.76c-2.12,0-4.1-.8-5.94-2.4-1.84-1.6-3.44-3.81-4.8-6.61-1.36-2.88-2.44-6.33-3.24-10.34-.76-4.01-1.14-8.45-1.14-13.34s.38-9.34,1.14-13.34c.8-4.01,1.88-7.45,3.24-10.34,1.36-2.81,2.96-5.01,4.8-6.61,1.84-1.6,3.82-2.4,5.94-2.4s4.1.8,5.94,2.4c1.8,1.6,3.38,3.81,4.74,6.61,1.36,2.89,2.44,6.33,3.24,10.34.76,4.01,1.14,8.46,1.14,13.34s-.38,9.34-1.14,13.34c-.8,4.01-1.88,7.46-3.24,10.34-1.36,2.81-2.94,5.01-4.74,6.61-1.84,1.6-3.82,2.4-5.94,2.4ZM304.86,97.8c2.04,0,3.94-.76,5.7-2.28,1.8-1.52,3.36-3.69,4.68-6.49,1.32-2.72,2.34-6.05,3.06-9.98.76-3.93,1.14-8.26,1.14-12.98s-.38-9.06-1.14-12.98c-.72-3.93-1.74-7.25-3.06-9.98-1.32-2.8-2.88-4.97-4.68-6.49-1.76-1.52-3.66-2.28-5.7-2.28s-3.96.76-5.76,2.28c-1.8,1.52-3.36,3.69-4.68,6.49-1.32,2.73-2.34,6.05-3.06,9.98-.76,3.93-1.14,8.26-1.14,12.98s.38,9.06,1.14,12.98c.72,3.93,1.74,7.25,3.06,9.98,1.32,2.81,2.88,4.97,4.68,6.49s3.72,2.28,5.76,2.28Z"/>
  <path class="cls-1" d="M359.46,30v-.48h.24l12.06.24h.24v4.08h-1.68c-.68,0-1.26.44-1.74,1.32-.48.88-.76,1.92-.84,3.12v49.68l.06,5.52.24,5.16.3,5.16v.48h-1.68l-.06-.12-29.28-55.56v45.24c.08,1.28.36,2.4.84,3.36.48.88,1.04,1.32,1.68,1.32h1.74v4.08h-12.48v-4.08h1.74c.64,0,1.22-.44,1.74-1.32.48-.96.74-2.08.78-3.36v-49.92c0-1.92-.04-3.8-.12-5.64l-.24-5.04-.36-4.8-.06-.6h1.86l.06.12,29.22,55.08v-45c-.08-1.2-.36-2.24-.84-3.12-.48-.88-1.04-1.32-1.68-1.32h-1.74v-3.6ZM359.94,30.48v2.16h1.26c.8,0,1.48.52,2.04,1.56.56,1.04.88,2.32.96,3.84v47.16l-.42-.72-29.58-55.68h-1.02l.3,4.32v.12l.24,4.92c.08,1.92.12,3.84.12,5.76v49.92c-.04,1.6-.36,2.92-.96,3.96-.56,1.12-1.24,1.68-2.04,1.68h-1.26v2.16h11.52v-2.16h-1.26c-.8,0-1.48-.56-2.04-1.68-.56-1.04-.88-2.36-.96-3.96v-47.4l.42.72,29.64,56.16h.96l-.3-4.68-.18-5.04-.12-5.64v-49.68c.08-1.52.4-2.8.96-3.84.56-1.04,1.26-1.56,2.1-1.56h1.2v-2.16l-11.58-.24Z"/>
  <path class="cls-1" d="M376.55,38.04v-.72l.36.24,24.18,22.92.12.12v7.2l-.12.12-24.18,23.04-.36.24v-9l.12-.12,18.54-17.88-18.54-17.88-.12-.12v-8.16ZM377.04,38.76v6.72l18.84,18.24.42.48-.42.48-18.84,18.24v6.84l23.7-22.68v-5.76l-23.7-22.56Z"/>
</svg>