<?xml version="1.0" encoding="UTF-8"?>
<svg id="Layer_1" xmlns="http://www.w3.org/2000/svg" viewBox="0 0 1679.98 546.49">
  <defs>
    <style>
      .cls-1 {
        fill: #fff;
      }
    </style>
  </defs>
  <path class="cls-1" d="M110.25,156.5l1.5-1v37l-.5.5-77.5,74.5,77.5,74.5.5.5v37.5l-1.5-1L9.5,283l-.5-.5v-30l.5-.5,100.75-95.5ZM109.75,161.5L11,255.5v24l98.75,94.5v-28.5l-78.75-76-1.75-2,1.75-2,78.75-76v-28Z"/>
  <path class="cls-1" d="M204.25,116h.75l.25,1,60.5,268c2,9,4.5,15.5,7.5,19.5,2.83,3.67,5.58,5.5,8.25,5.5h5v17h-56v-17h5c1.66,0,3.16-1.16,4.5-3.5,1.33-2.33,2-5.66,2-10l-.75-7.5-12.5-60.5h-57.25l-12.5,59.5c-.67,2.67-1,5.5-1,8.5,0,4.34.66,7.67,2,10,1.33,2.34,2.75,3.5,4.25,3.5h5v17h-52.5v-17h5c2.66,0,5.5-1.83,8.5-5.5,3-4,5.58-10.5,7.75-19.5l50.5-215.5,4.5-19.5,3.25-17.5c.83-6,1.33-10.83,1.5-14.5v-2h6.5ZM203.5,120h-3.75c-.34,3.67-.92,8.17-1.75,13.5l-3,17.5v.5l-4.5,20-50.5,215.5c-2.5,9.67-5.42,16.5-8.75,20.5-3.34,4.34-6.5,6.5-9.5,6.5h-3v9h48.5v-9h-3c-2.17,0-4.09-1.5-5.75-4.5-1.67-3-2.5-7.33-2.5-13,0-3.66.33-7.16,1-10.5l12.75-60.5.25-1h60.25l.25,1,12.75,62v.5l.75,8v.5c0,5.67-.92,10-2.75,13-1.84,3-3.75,4.5-5.75,4.5h-3v9h52v-9h-3c-3,0-6.17-2.16-9.5-6.5-3.17-4-5.92-10.83-8.25-20.5l-60.25-267ZM175.5,305.5h-1.5l.5-3,25-118,1-4,1,4,24.25,118,.5,3h-50.75ZM177,301.5h46.25l-22.75-111-23.5,111Z"/>
  <path class="cls-1" d="M418.75,125v-2h1l50.25,1h1v17h-7c-2.84,0-5.25,1.84-7.25,5.5-2,3.67-3.17,8-3.5,13v207l.25,23,1,21.5,1.25,21.5v2h-7l-.25-.5-122-231.5v188.5c.33,5.34,1.5,10,3.5,14,2,3.67,4.33,5.5,7,5.5h7.25v17h-52v-17h7.25c2.66,0,5.08-1.83,7.25-5.5,2-4,3.08-8.66,3.25-14v-208c0-8-.17-15.83-.5-23.5l-1-21-1.5-20-.25-2.5h7.75l.25.5,121.75,229.5v-187.5c-.34-5-1.5-9.33-3.5-13-2-3.66-4.34-5.5-7-5.5h-7.25v-15ZM420.75,127v9h5.25c3.33,0,6.16,2.17,8.5,6.5,2.33,4.34,3.66,9.67,4,16v196.5l-1.75-3-123.25-232h-4.25l1.25,18v.5l1,20.5c.33,8,.5,16,.5,24v208c-.17,6.67-1.5,12.17-4,16.5-2.34,4.67-5.17,7-8.5,7h-5.25v9h48v-9h-5.25c-3.34,0-6.17-2.33-8.5-7-2.34-4.33-3.67-9.83-4-16.5v-197.5l1.75,3,123.5,234h4l-1.25-19.5-.75-21-.5-23.5v-207c.33-6.33,1.66-11.66,4-16,2.33-4.33,5.25-6.5,8.75-6.5h5v-9l-48.25-1Z"/>
  <path class="cls-1" d="M551.99,425v2h-61.25v-17h6.25c3.66,0,6.75-2,9.25-6s3.91-8.66,4.25-14v-229.5c-.34-5.33-1.75-10-4.25-14s-5.59-6-9.25-6h-6.25v-17.5h61.25v17.5h-6.25c-3.5,0-6.5,2-9,6s-3.92,8.5-4.25,13.5v230c.16,5.34,1.5,10,4,14s5.58,6,9.25,6h6.25v15ZM549.99,423v-9h-4.25c-4,0-7.5-2.33-10.5-7-3-4.66-4.59-10.33-4.75-17v-230c.33-6.33,2-11.83,5-16.5,3-4.66,6.41-7,10.25-7h4.25v-9.5h-57.25v9.5h4.25c4,0,7.5,2.34,10.5,7,3,4.67,4.66,10.34,5,17v229.5c-.34,6.67-2,12.34-5,17-3,4.67-6.5,7-10.5,7h-4.25v9h57.25Z"/>
  <path class="cls-1" d="M739.99,116h.75l.25,1.5,19.5,271.5c.66,7,2.25,12.34,4.75,16,2.66,3.67,5.66,5.5,9,5.5h6.75v17h-56.75v-16.5h6.75c1.5,0,2.83-1,4-3,1.16-2,1.75-4.83,1.75-8.5-2.17-33-4.17-64.33-6-94-1.84-27.66-3.67-56.66-5.5-87l-41.25,163-1.25,5.5-2.5,12-3,16.5c-1,6-1.75,11.83-2.25,17.5l-.25,1.5h-6.5l-.5-1-54.5-210.5-10,175.5c0,3.34.58,6.17,1.75,8.5,1.33,2.34,2.75,3.5,4.25,3.5h6.75v16.5h-51v-17h6.5c3.66,0,6.75-2,9.25-6,2.5-3.66,4-9.16,4.5-16.5l19-270,.25-1.5h6.75l.5,1,62,239,59.75-239,.5-1h6ZM739.24,120h-4.25l-60.25,241.5-1,3.5-1-3.5-62.5-241.5h-4.25l-18.75,268.5c-.5,8-2.25,14.34-5.25,19-3,4.34-6.5,6.5-10.5,6.5h-4.5v9h47v-8.5h-4.75c-2.17,0-4-1.5-5.5-4.5-1.67-3-2.5-7-2.5-12l10.25-182,.25-7,1.75,6,55.75,215.5h4c.5-5.34,1.16-10.66,2-16l3-16.5v-.5l2.75-12.5,1-5.5,42.75-169,1.5-6,.5,7c2,32.67,3.91,63.84,5.75,93.5,2,29.67,4.08,61,6.25,94v.5c0,5-.75,8.84-2.25,11.5-1.5,2.67-3.34,4-5.5,4h-4.75v8.5h52.75v-9h-4.75c-3.67,0-7-2.16-10-6.5-3.17-4.33-5.09-10.5-5.75-18.5l-19.25-269.5Z"/>
  <path class="cls-1" d="M868.24,116h.75l.25,1,60.5,268c2,9,4.5,15.5,7.5,19.5,2.83,3.67,5.58,5.5,8.25,5.5h5v17h-56v-17h5c1.66,0,3.16-1.16,4.5-3.5,1.33-2.33,2-5.66,2-10l-.75-7.5-12.5-60.5h-57.25l-12.5,59.5c-.67,2.67-1,5.5-1,8.5,0,4.34.66,7.67,2,10,1.33,2.34,2.75,3.5,4.25,3.5h5v17h-52.5v-17h5c2.66,0,5.5-1.83,8.5-5.5,3-4,5.58-10.5,7.75-19.5l50.5-215.5,4.5-19.5,3.25-17.5c.83-6,1.33-10.83,1.5-14.5v-2h6.5ZM867.49,120h-3.75c-.34,3.67-.92,8.17-1.75,13.5l-3,17.5v.5l-4.5,20-50.5,215.5c-2.5,9.67-5.42,16.5-8.75,20.5-3.34,4.34-6.5,6.5-9.5,6.5h-3v9h48.5v-9h-3c-2.17,0-4.09-1.5-5.75-4.5-1.67-3-2.5-7.33-2.5-13,0-3.66.33-7.16,1-10.5l12.75-60.5.25-1h60.25l.25,1,12.75,62v.5l.75,8v.5c0,5.67-.92,10-2.75,13-1.84,3-3.75,4.5-5.75,4.5h-3v9h52v-9h-3c-3,0-6.17-2.16-9.5-6.5-3.17-4-5.92-10.83-8.25-20.5l-60.25-267ZM839.49,305.5h-1.5l.5-3,25-118,1-4,1,4,24.25,118,.5,3h-50.75ZM840.99,301.5h46.25l-22.75-111-23.5,111Z"/>
  <path class="cls-1" d="M982.49,122.5h79l7.75-1,8.25-2.5,7.5-3,5.5-3.5,1.25-.5v70h-8.75v-13.5c0-5-.84-9.33-2.5-13-1.84-3.66-4.09-5.66-6.75-6h-40.75v240.5c.16,5.34,1.33,10,3.5,14,2.16,4,4.75,6,7.75,6h6v17h-56.25v-17h6c3,0,5.58-2,7.75-6,2-4,3.16-8.83,3.5-14.5v-240h-41c-2.67.34-4.84,2.34-6.5,6-1.67,3.67-2.5,8-2.5,13v13.5h-9v-70l1.25.5,5.5,3.5,7.5,3,8.25,2.5,7.75,1ZM982.49,126.5l-7.75-1h-.25l-8.25-2.5-7.75-3.5-4.25-2.5v61h5v-9.5c0-6.33,1-11.66,3-16,2-4.33,4.66-6.66,8-7h43v244c-.34,7-1.75,12.84-4.25,17.5-2.34,4.67-5.34,7-9,7h-4v9h52.25v-9h-4c-3.67,0-6.75-2.33-9.25-7-2.5-4.66-3.84-10.33-4-17v-244.5h42.75c3.33.34,6,2.67,8,7,2.16,4.34,3.25,9.67,3.25,16v9.5h4.75v-61l-4.25,2.5-7.75,3.5-8.25,2.5h-.25l-7.75,1h-79Z"/>
  <path class="cls-1" d="M1165.74,425v2h-61.25v-17h6.25c3.66,0,6.75-2,9.25-6s3.91-8.66,4.25-14v-229.5c-.34-5.33-1.75-10-4.25-14s-5.59-6-9.25-6h-6.25v-17.5h61.25v17.5h-6.25c-3.5,0-6.5,2-9,6s-3.92,8.5-4.25,13.5v230c.16,5.34,1.5,10,4,14s5.58,6,9.25,6h6.25v15ZM1163.74,423v-9h-4.25c-4,0-7.5-2.33-10.5-7-3-4.66-4.59-10.33-4.75-17v-230c.33-6.33,2-11.83,5-16.5,3-4.66,6.41-7,10.25-7h4.25v-9.5h-57.25v9.5h4.25c4,0,7.5,2.34,10.5,7,3,4.67,4.66,10.34,5,17v229.5c-.34,6.67-2,12.34-5,17-3,4.67-6.5,7-10.5,7h-4.25v9h57.25Z"/>
  <path class="cls-1" d="M1270.24,116c11.83,0,22.83,3.84,33,11.5,10.33,8,19.41,19,27.25,33,7.66,14,13.75,30.67,18.25,50,4.5,19.34,6.75,40.84,6.75,64.5s-2.25,45.17-6.75,64.5c-4.5,19.34-10.59,36-18.25,50-7.84,14-16.92,25-27.25,33-10.17,7.66-21.17,11.5-33,11.5s-22.92-3.84-33.25-11.5c-10.34-8-19.42-19-27.25-33-7.67-14-13.75-30.66-18.25-50-4.5-19.33-6.75-40.83-6.75-64.5s2.25-45.16,6.75-64.5c4.5-19.33,10.58-36,18.25-50,7.83-14,16.91-25,27.25-33,10.33-7.66,21.41-11.5,33.25-11.5ZM1270.24,120c-11.5,0-22.34,3.84-32.5,11.5-10.17,7.34-19,17.84-26.5,31.5-7.67,13.67-13.67,30-18,49-4.34,19-6.5,40-6.5,63s2.16,44,6.5,63c4.33,19,10.33,35.34,18,49,7.5,13.67,16.33,24.17,26.5,31.5,10.16,7.66,21,11.5,32.5,11.5s22.33-3.84,32.5-11.5c10-7.33,18.75-17.83,26.25-31.5,7.66-13.66,13.66-30,18-49,4.33-19,6.5-40,6.5-63s-2.17-44-6.5-63c-4.34-19-10.34-35.33-18-49-7.5-13.66-16.25-24.16-26.25-31.5-10.17-7.66-21-11.5-32.5-11.5ZM1270.24,411.5c-8.84,0-17.09-3.34-24.75-10.02-7.67-6.68-14.34-15.87-20-27.55-5.67-12.02-10.17-26.38-13.5-43.08-3.17-16.7-4.75-35.23-4.75-55.6s1.58-38.9,4.75-55.6c3.33-16.7,7.83-31.05,13.5-43.08,5.66-11.69,12.33-20.87,20-27.55,7.66-6.67,15.91-10.02,24.75-10.02s17.08,3.34,24.75,10.02c7.5,6.69,14.08,15.87,19.75,27.55,5.66,12.02,10.16,26.38,13.5,43.08,3.16,16.7,4.75,35.23,4.75,55.6s-1.59,38.91-4.75,55.6c-3.34,16.7-7.84,31.06-13.5,43.08-5.67,11.69-12.25,20.88-19.75,27.55-7.67,6.68-15.92,10.02-24.75,10.02ZM1270.24,407.5c8.5,0,16.41-3.17,23.75-9.52,7.5-6.34,14-15.37,19.5-27.05,5.5-11.35,9.75-25.21,12.75-41.58,3.16-16.36,4.75-34.4,4.75-54.1s-1.59-37.73-4.75-54.1c-3-16.36-7.25-30.22-12.75-41.58-5.5-11.69-12-20.7-19.5-27.05-7.34-6.34-15.25-9.52-23.75-9.52s-16.5,3.17-24,9.52c-7.5,6.35-14,15.37-19.5,27.05-5.5,11.36-9.75,25.22-12.75,41.58-3.17,16.37-4.75,34.4-4.75,54.1s1.58,37.74,4.75,54.1c3,16.37,7.25,30.23,12.75,41.58,5.5,11.69,12,20.71,19.5,27.05s15.5,9.52,24,9.52Z"/>
  <path class="cls-1" d="M1497.73,125v-2h1l50.25,1h1v17h-7c-2.84,0-5.25,1.84-7.25,5.5-2,3.67-3.17,8-3.5,13v207l.25,23,1,21.5,1.25,21.5v2h-7l-.25-.5-122-231.5v188.5c.33,5.34,1.5,10,3.5,14,2,3.67,4.33,5.5,7,5.5h7.25v17h-52v-17h7.25c2.66,0,5.08-1.83,7.25-5.5,2-4,3.08-8.66,3.25-14v-208c0-8-.17-15.83-.5-23.5l-1-21-1.5-20-.25-2.5h7.75l.25.5,121.75,229.5v-187.5c-.34-5-1.5-9.33-3.5-13-2-3.66-4.34-5.5-7-5.5h-7.25v-15ZM1499.73,127v9h5.25c3.33,0,6.16,2.17,8.5,6.5,2.33,4.34,3.66,9.67,4,16v196.5l-1.75-3-123.25-232h-4.25l1.25,18v.5l1,20.5c.33,8,.5,16,.5,24v208c-.17,6.67-1.5,12.17-4,16.5-2.34,4.67-5.17,7-8.5,7h-5.25v9h48v-9h-5.25c-3.34,0-6.17-2.33-8.5-7-2.34-4.33-3.67-9.83-4-16.5v-197.5l1.75,3,123.5,234h4l-1.25-19.5-.75-21-.5-23.5v-207c.33-6.33,1.66-11.66,4-16,2.33-4.33,5.25-6.5,8.75-6.5h5v-9l-48.25-1Z"/>
  <path class="cls-1" d="M1568.98,158.5v-3l1.5,1,100.75,95.5.5.5v30l-.5.5-100.75,96-1.5,1v-37.5l.5-.5,77.25-74.5-77.25-74.5-.5-.5v-34ZM1570.98,161.5v28l78.5,76,1.75,2-1.75,2-78.5,76v28.5l98.75-94.5v-24l-98.75-94Z"/>
</svg>