<?xml version="1.0" encoding="UTF-8"?>
<svg xmlns="http://www.w3.org/2000/svg" version="1.1" viewBox="0 0 49.2 11.6">
  <defs>
    <style>
      .cls-1 {
        fill: #fff;
      }

      .cls-2 {
        isolation: isolate;
      }
    </style>
  </defs>
  <!-- Generator: Adobe Illustrator 28.7.3, SVG Export Plug-In . SVG Version: 1.2.0 Build 164)  -->
  <g>
    <g id="Layer_1">
      <g class="cls-2">
        <g class="cls-2">
          <path class="cls-1" d="M6.4,1.6v1.2H1.8v2.3h3.5v1.2H1.8v2.3h4.7v1.2H.6V1.6h5.9Z"/>
          <path class="cls-1" d="M7.6,9.8V1.6h4.7v.6h.6v.6h.6v5.9h-.6v.6h-.6v.6h-4.7ZM8.8,2.8v5.9h2.9v-.6h.6V3.4h-.6v-.6h-2.9Z"/>
          <path class="cls-1" d="M15.8,9.8v-1.2h1.2V2.8h-1.2v-1.2h3.5v1.2h-1.2v5.9h1.2v1.2h-3.5Z"/>
          <path class="cls-1" d="M24,2.8h-2.3v-1.2h5.9v1.2h-2.3v7h-1.2V2.8Z"/>
          <path class="cls-1" d="M29.9,9.8v-1.2h1.2V2.8h-1.2v-1.2h3.5v1.2h-1.2v5.9h1.2v1.2h-3.5Z"/>
          <path class="cls-1" d="M36.9,5.1v4.7h-1.2V1.6h1.2v1.8h.6v.6h.6v.6h.6v.6h.6v.6h.6v.6h.6V1.6h1.2v8.2h-1.2v-1.8h-.6v-.6h-.6v-.6h-.6v-.6h-.6v-.6h-.6v-.6h-.6Z"/>
          <path class="cls-1" d="M48,2.8h.6v1.2h-1.2v-.6h-.6v-.6h-2.3v.6h-.6v4.7h.6v.6h2.3v-.6h.6v-1.8h-1.8v-1.2h2.9v3.5h-.6v.6h-.6v.6h-3.5v-.6h-.6v-.6h-.6V2.8h.6v-.6h.6v-.6h3.5v.6h.6v.6Z"/>
        </g>
      </g>
    </g>
  </g>
</svg>