<?xml version="1.0" encoding="UTF-8"?>
<svg id="Layer_1" xmlns="http://www.w3.org/2000/svg" viewBox="0 0 1264.73 551.49">
  <defs>
    <style>
      .cls-1 {
        fill: #fff;
        stroke: #fff;
        stroke-miterlimit: 10;
        stroke-width: 5px;
      }
    </style>
  </defs>
  <path class="cls-1" d="M112.75,159l1.5-1v37l-.5.5-77.5,74.5,77.5,74.5.5.5v37.5l-1.5-1L12,285.5l-.5-.5v-30l.5-.5,100.75-95.5ZM112.25,164L13.5,258v24l98.75,94.5v-28.5l-78.75-76-1.75-2,1.75-2,78.75-76v-28Z"/>
  <path class="cls-1" d="M248.5,348h1.5l-.5,2.5-15,80-.25,1.5h-104v-17h6.5c3,0,5.5-2,7.5-6s3.08-8.83,3.25-14.5v-231c0-5.33-1-10-3-14-2.17-3.66-4.75-5.5-7.75-5.5h-6.5v-17h74.25l7.75-1,8.25-2.5,7.25-3,5.5-3.5,1.25-.5v70h-8.75v-13.5c0-5-.84-9.33-2.5-13-1.84-3.66-4.09-5.66-6.75-6h-47.25v111h38.5c2.33-.33,4.08-1.83,5.25-4.5,1.16-2.66,1.75-6,1.75-10v-12.5h8.75v80.5h-8.75v-12.5c0-4-.59-7.16-1.75-9.5-1-2.66-2.59-4.33-4.75-5h-38.75v111h34.75c5.33-.33,9.91-1.83,13.75-4.5,3.83-3,7.08-6.66,9.75-11,2.83-4.66,5.25-10.16,7.25-16.5,2-6.66,3.83-13.83,5.5-21.5l.25-1h7.75ZM247,352h-4.75c-1.67,7.34-3.5,14.17-5.5,20.5-2.17,7-4.67,12.84-7.5,17.5-3,5-6.5,8.84-10.5,11.5-4,3-8.84,4.67-14.5,5h-36.75v-119h41c2.66.67,4.75,2.67,6.25,6,1.33,3.67,2,7.84,2,12.5v8.5h4.75v-72.5h-4.75v8.5c0,4.67-.75,8.84-2.25,12.5-1.5,3.67-3.75,5.67-6.75,6h-40.5v-119h49.25c3.33.34,6,2.67,8,7,2.16,4.34,3.25,9.67,3.25,16v9.5h4.75v-61l-4,2.5h-.25l-7.5,3.5-8.25,2.5h-.25l-7.75,1h-72.25v9h4.5c3.66,0,6.66,2.34,9,7,2.5,4.34,3.75,9.84,3.75,16.5v231c-.17,7-1.42,12.84-3.75,17.5s-5.34,7-9,7h-4.5v9h100.5l14.25-76Z"/>
  <path class="cls-1" d="M272.74,127.5v-2h1l83,.5c12.16.34,23.25,4.17,33.25,11.5,10,7.34,18.58,17.5,25.75,30.5,7,13,12.5,28.67,16.5,47,3.83,18.67,5.75,39.67,5.75,63s-1.92,44.84-5.75,63.5c-3.84,18.67-9.25,34.67-16.25,48-7,13.34-15.5,23.34-25.5,30-10,7-21.25,10.5-33.75,10.5l-83.25-.5-1,.5v-17h6.25c3,0,5.5-2,7.5-6,2-4.33,3.08-9.33,3.25-15v-229c-.17-5.66-1.25-10.5-3.25-14.5-2.17-3.66-4.67-5.5-7.5-5.5h-6v-15.5ZM274.74,129.5v9.5h4c3.5,0,6.41,2.34,8.75,7,2.5,4.34,3.83,10,4,17v229c-.17,7-1.42,12.84-3.75,17.5-2.34,5-5.34,7.5-9,7.5h-4.25v9l82.25-.5c12.16,0,23.16-3.33,33-9.98,9.83-6.98,18.16-16.8,25-29.45,6.83-12.64,12.08-28.12,15.75-46.42,3.66-18.3,5.5-38.93,5.5-61.9s-1.92-42.93-5.75-60.9c-3.67-18.3-9-33.77-16-46.42-6.84-12.64-15.17-22.46-25-29.45-9.84-6.98-20.67-10.65-32.5-10.98l-82-.5ZM309.49,151v-2h47.25c9.16,0,17.41,3,24.75,9,7.33,6,13.58,14.5,18.75,25.5,5.33,11.34,9.33,25,12,41,2.66,16,4,34,4,54,0,40.34-5.34,71.84-16,94.5-10.5,22.67-25,34-43.5,34h-47.25V151ZM311.49,153v250h45.25c17.83,0,31.91-11,42.25-33,10.16-22,15.25-52.5,15.25-91.5,0-19.33-1.34-36.83-4-52.5-2.67-15.66-6.42-28.83-11.25-39.5-5-11-11.09-19.33-18.25-25-7.17-5.66-15.17-8.5-24-8.5h-45.25Z"/>
  <path class="cls-1" d="M520.49,427.5v2h-61.25v-17h6.25c3.66,0,6.75-2,9.25-6s3.91-8.66,4.25-14v-229.5c-.34-5.33-1.75-10-4.25-14s-5.59-6-9.25-6h-6.25v-17.5h61.25v17.5h-6.25c-3.5,0-6.5,2-9,6s-3.92,8.5-4.25,13.5v230c.16,5.34,1.5,10,4,14s5.58,6,9.25,6h6.25v15ZM518.49,425.5v-9h-4.25c-4,0-7.5-2.33-10.5-7-3-4.66-4.59-10.33-4.75-17v-230c.33-6.33,2-11.83,5-16.5,3-4.66,6.41-7,10.25-7h4.25v-9.5h-57.25v9.5h4.25c4,0,7.5,2.34,10.5,7,3,4.67,4.66,10.34,5,17v229.5c-.34,6.67-2,12.34-5,17-3,4.67-6.5,7-10.5,7h-4.25v9h57.25Z"/>
  <path class="cls-1" d="M565.74,125h79l7.75-1,8.25-2.5,7.5-3,5.5-3.5,1.25-.5v70h-8.75v-13.5c0-5-.84-9.33-2.5-13-1.84-3.66-4.09-5.66-6.75-6h-40.75v240.5c.16,5.34,1.33,10,3.5,14,2.16,4,4.75,6,7.75,6h6v17h-56.25v-17h6c3,0,5.58-2,7.75-6,2-4,3.16-8.83,3.5-14.5v-240h-41c-2.67.34-4.84,2.34-6.5,6-1.67,3.67-2.5,8-2.5,13v13.5h-9v-70l1.25.5,5.5,3.5,7.5,3,8.25,2.5,7.75,1ZM565.74,129l-7.75-1h-.25l-8.25-2.5-7.75-3.5-4.25-2.5v61h5v-9.5c0-6.33,1-11.66,3-16,2-4.33,4.66-6.66,8-7h43v244c-.34,7-1.75,12.84-4.25,17.5-2.34,4.67-5.34,7-9,7h-4v9h52.25v-9h-4c-3.67,0-6.75-2.33-9.25-7-2.5-4.66-3.84-10.33-4-17v-244.5h42.75c3.33.34,6,2.67,8,7,2.16,4.34,3.25,9.67,3.25,16v9.5h4.75v-61l-4.25,2.5-7.75,3.5-8.25,2.5h-.25l-7.75,1h-79Z"/>
  <path class="cls-1" d="M748.99,427.5v2h-61.25v-17h6.25c3.66,0,6.75-2,9.25-6s3.91-8.66,4.25-14v-229.5c-.34-5.33-1.75-10-4.25-14s-5.59-6-9.25-6h-6.25v-17.5h61.25v17.5h-6.25c-3.5,0-6.5,2-9,6s-3.92,8.5-4.25,13.5v230c.16,5.34,1.5,10,4,14s5.58,6,9.25,6h6.25v15ZM746.99,425.5v-9h-4.25c-4,0-7.5-2.33-10.5-7-3-4.66-4.59-10.33-4.75-17v-230c.33-6.33,2-11.83,5-16.5,3-4.66,6.41-7,10.25-7h4.25v-9.5h-57.25v9.5h4.25c4,0,7.5,2.34,10.5,7,3,4.67,4.66,10.34,5,17v229.5c-.34,6.67-2,12.34-5,17-3,4.67-6.5,7-10.5,7h-4.25v9h57.25Z"/>
  <path class="cls-1" d="M894.49,127.5v-2h1l50.25,1h1v17h-7c-2.84,0-5.25,1.84-7.25,5.5-2,3.67-3.17,8-3.5,13v207l.25,23,1,21.5,1.25,21.5v2h-7l-.25-.5-122-231.5v188.5c.33,5.34,1.5,10,3.5,14,2,3.67,4.33,5.5,7,5.5h7.25v17h-52v-17h7.25c2.66,0,5.08-1.83,7.25-5.5,2-4,3.08-8.66,3.25-14v-208c0-8-.17-15.83-.5-23.5l-1-21-1.5-20-.25-2.5h7.75l.25.5,121.75,229.5v-187.5c-.34-5-1.5-9.33-3.5-13-2-3.66-4.34-5.5-7-5.5h-7.25v-15ZM896.49,129.5v9h5.25c3.33,0,6.16,2.17,8.5,6.5,2.33,4.34,3.66,9.67,4,16v196.5l-1.75-3-123.25-232h-4.25l1.25,18v.5l1,20.5c.33,8,.5,16,.5,24v208c-.17,6.67-1.5,12.17-4,16.5-2.34,4.67-5.17,7-8.5,7h-5.25v9h48v-9h-5.25c-3.34,0-6.17-2.33-8.5-7-2.34-4.33-3.67-9.83-4-16.5v-197.5l1.75,3,123.5,234h4l-1.25-19.5-.75-21-.5-23.5v-207c.33-6.33,1.66-11.66,4-16,2.33-4.33,5.25-6.5,8.75-6.5h5v-9l-48.25-1Z"/>
  <path class="cls-1" d="M1121.24,309l.5,60.5v.5l-.25.5c-3,8-6.84,15.84-11.5,23.5-4.67,7.67-10,14.84-16,21.5-6.17,6.34-12.92,11.5-20.25,15.5-7.5,4-15.67,6-24.5,6-12.5,0-23.84-3.67-34-11-10.17-7.66-18.92-18.33-26.25-32-7.17-13.66-12.75-30.16-16.75-49.5-4-19.66-6-41.83-6-66.5s2-46.83,6-66.5c4-19.66,9.58-36.33,16.75-50,7.33-13.66,16.08-24.16,26.25-31.5,10.16-7.33,21.5-11,34-11,11.66,0,22.25,2.5,31.75,7.5s18.58,13,27.25,24l.5.5v.5l6,75,.25,2.5h-8.25l-.25-1.5c-3.5-28.33-9.84-49-19-62-9.34-13.33-22.25-20-38.75-20-8.84,0-16.92,3-24.25,9-7.34,6-13.59,14.67-18.75,26-5,11.34-8.92,25.17-11.75,41.5-2.84,16.67-4.25,35.17-4.25,55.5s1.41,38.67,4.25,55c2.83,16.34,6.75,30.17,11.75,41.5,5.16,11.67,11.41,20.5,18.75,26.5,7.33,6,15.41,9,24.25,9,9.5,0,18.5-3.16,27-9.5,8.33-6,16.16-15.83,23.5-29.5l.25-30.5.25-31.5c0-4-.75-7-2.25-9-1.5-2.33-3.59-3.5-6.25-3.5h-4.5v-15h46.75v15h-4.5c-5.17,0-7.75,4.34-7.75,13ZM1119.24,309c0-11.33,3.25-17,9.75-17h2.5v-7h-42.75v7h2.5c3,0,5.5,1.34,7.5,4,2,3,3,7.17,3,12.5l-.25,31.5-.25,31.5v1l-.25.5c-7.67,14-15.84,24.34-24.5,31-8.67,6.34-17.92,9.5-27.75,9.5-9.17,0-17.5-3.16-25-9.5-7.5-6.33-13.92-15.33-19.25-27-5.5-12-9.67-26.33-12.5-43-2.84-16.66-4.25-35.5-4.25-56.5s1.41-39.83,4.25-56.5c2.83-17,7-31.33,12.5-43,5.33-11.66,11.75-20.66,19.25-27,7.5-6.33,15.83-9.5,25-9.5,16.83,0,30.08,6.84,39.75,20.5,9.5,13.67,16.08,34.67,19.75,63h4.25l-5.75-72c-8.34-10.33-17.17-17.83-26.5-22.5-9.34-5-19.67-7.5-31-7.5-12.17,0-23.25,3.5-33.25,10.5s-18.5,17.17-25.5,30.5c-7.17,13.34-12.67,29.67-16.5,49-3.84,19.34-5.75,41-5.75,65s1.91,45.5,5.75,64.5c3.83,19.34,9.33,35.67,16.5,49,7,13.34,15.5,23.5,25.5,30.5,10,7.33,21.08,11,33.25,11,8.5,0,16.41-2,23.75-6,7.5-4,14.16-9.16,20-15.5,6-6,11.25-12.83,15.75-20.5,4.33-7.33,8-14.66,11-22l-.5-60Z"/>
  <path class="cls-1" d="M1151.23,161v-3l1.5,1,100.75,95.5.5.5v30l-.5.5-100.75,96-1.5,1v-37.5l.5-.5,77.25-74.5-77.25-74.5-.5-.5v-34ZM1153.23,164v28l78.5,76,1.75,2-1.75,2-78.5,76v28.5l98.75-94.5v-24l-98.75-94Z"/>
</svg>