<?xml version="1.0" encoding="UTF-8"?>
<svg id="Layer_1" xmlns="http://www.w3.org/2000/svg" viewBox="0 0 131.25 8.79">
  <defs>
    <style>
      .cls-1 {
        fill: #fff;
      }
    </style>
  </defs>
  <path class="cls-1" d="M3.52,7.62h-.59v.59h-.59v.59H0v-1.17h1.76v-.59h.59v-3.52h-1.17v-1.17h2.34v5.27ZM3.52,0v1.17h-1.17V0h1.17Z"/>
  <path class="cls-1" d="M5.86,2.34h1.17v4.69h.59v.59h2.34v-.59h.59V2.34h1.17v5.27h-.59v.59h-.59v.59h-3.52v-.59h-.59v-.59h-.59V2.34Z"/>
  <path class="cls-1" d="M17.58,3.52V.59h1.17v8.2h-1.17v-1.17h-.59v.59h-.59v.59h-1.76v-.59h-.59v-.59h-.59v-.59h-.59v-2.93h.59v-.59h.59v-.59h.59v-.59h1.76v.59h.59v.59h.59ZM14.65,7.03h.59v.59h.59v-.59h.59v-.59h.59v-1.76h-.59v-.59h-.59v-.59h-.59v.59h-.59v.59h-.59v1.76h.59v.59Z"/>
  <path class="cls-1" d="M25.78,7.03v.59h-.59v.59h-.59v.59h-3.52v-.59h-.59v-.59h-.59V3.52h.59v-.59h.59v-.59h3.52v.59h.59v.59h.59v1.76h-.59v.59h-4.1v1.17h.59v.59h2.34v-.59h1.76ZM21.09,4.1v.59h3.52v-.59h-.59v-.59h-2.34v.59h-.59Z"/>
  <path class="cls-1" d="M28.12,8.2h-.59v-1.17h1.17v.59h2.34v-.59h.59v-1.76h-.59v.59h-2.93v-.59h-.59v-.59h-.59v-1.76h.59v-.59h.59v-.59h3.52v.59h.59v.59h.59v4.69h-.59v.59h-.59v.59h-3.52v-.59ZM31.64,4.1v-.59h-.59v-.59h-2.34v.59h-.59v.59h.59v.59h2.34v-.59h.59Z"/>
  <path class="cls-1" d="M35.16,5.27v3.52h-1.17V2.34h1.17v1.17h.59v-.59h.59v-.59h2.34v.59h.59v.59h.59v1.17h-1.17v-.59h-.59v-.59h-1.17v.59h-.59v.59h-.59v.59h-.59Z"/>
  <path class="cls-1" d="M42.19,8.79v-.59h-.59v-.59h-.59V3.52h.59v-.59h.59v-.59h3.52v.59h.59v.59h.59v4.1h-.59v.59h-.59v.59h-3.52ZM42.77,7.62h2.34v-.59h.59v-2.93h-.59v-.59h-2.34v.59h-.59v2.93h.59v.59Z"/>
  <path class="cls-1" d="M48.63,7.62h-.59v-1.17h1.17v.59h.59v.59h2.34v-1.17h-1.17v-.59h-1.17v-.59h-1.17v-.59h-.59v-1.17h.59v-.59h.59v-.59h3.52v.59h.59v.59h.59v1.17h-1.17v-.59h-.59v-.59h-2.34v1.17h1.76v.59h1.17v.59h.59v.59h.59v1.17h-.59v.59h-.59v.59h-3.52v-.59h-.59v-.59Z"/>
  <path class="cls-1" d="M55.66,7.62h-.59v-1.17h1.17v.59h.59v.59h2.34v-1.17h-1.17v-.59h-1.17v-.59h-1.17v-.59h-.59v-1.17h.59v-.59h.59v-.59h3.52v.59h.59v.59h.59v1.17h-1.17v-.59h-.59v-.59h-2.34v1.17h1.76v.59h1.17v.59h.59v.59h.59v1.17h-.59v.59h-.59v.59h-3.52v-.59h-.59v-.59Z"/>
  <path class="cls-1" d="M66.21,6.45v-.59h.59v-.59h.59v-2.34h-.59v-.59h-.59v-.59h-2.34v.59h-.59v.59h-.59v3.52h.59v.59h.59v.59h2.34v-.59h1.17v.59h-.59v.59h-3.52v-.59h-.59v-.59h-.59V2.34h.59v-.59h.59v-.59h3.52v.59h.59v.59h.59v3.52h-.59v.59h-1.17ZM66.21,5.86h-.59v.59h-1.76v-.59h-.59v-2.34h.59v-.59h1.17v.59h.59v-.59h.59v2.93ZM65.04,3.52h-.59v2.34h.59v-2.34Z"/>
  <path class="cls-1" d="M70.31,8.2h-.59v-1.17h1.17v.59h2.34v-.59h.59v-1.76h-.59v.59h-2.93v-.59h-.59v-.59h-.59v-1.76h.59v-.59h.59v-.59h3.52v.59h.59v.59h.59v4.69h-.59v.59h-.59v.59h-3.52v-.59ZM73.83,4.1v-.59h-.59v-.59h-2.34v.59h-.59v.59h.59v.59h2.34v-.59h.59Z"/>
  <path class="cls-1" d="M77.34,4.1v4.69h-1.17V2.34h1.17v.59h.59v-.59h2.93v.59h.59v.59h.59v5.27h-1.17v-4.69h-.59v-.59h-.59v5.27h-1.17V3.52h-.59v.59h-.59Z"/>
  <path class="cls-1" d="M84.37,8.79v-.59h-.59v-.59h-.58v-2.34h.58v-.59h.59v-.59h2.93v.59h.59v-1.17h-.59v-.59h-2.93v-1.17h3.52v.59h.59v.59h.59v5.86h-1.17v-.59h-.59v.59h-2.93ZM84.96,7.62h2.34v-.59h.59v-1.17h-.59v-.59h-2.34v.59h-.59v1.17h.59v.59Z"/>
  <path class="cls-1" d="M94.34,7.62h.59v1.17h-1.17v-.59h-.59v-.59h-.59v-2.93h-1.17v-1.17h2.34v3.52h.59v.59ZM93.75,1.17v1.17h-1.17v-1.17h1.17Z"/>
  <path class="cls-1" d="M100.78.59v8.2h-1.17V.59h1.17Z"/>
  <path class="cls-1" d="M107.23,7.62v1.17h-1.17v-1.17h1.17Z"/>
  <path class="cls-1" d="M116.02,7.03v-.59h1.17v1.17h-.59v.59h-.59v.59h-3.52v-.59h-.59v-.59h-.59V3.52h.59v-.59h.59v-.59h3.52v.59h.59v.59h.59v1.17h-1.17v-.59h-.59v-.59h-2.34v.59h-.59v2.93h.59v.59h2.34v-.59h.59Z"/>
  <path class="cls-1" d="M119.53,8.79v-.59h-.59v-.59h-.59V3.52h.59v-.59h.59v-.59h3.52v.59h.59v.59h.59v4.1h-.59v.59h-.59v.59h-3.52ZM120.12,7.62h2.34v-.59h.59v-2.93h-.59v-.59h-2.34v.59h-.59v2.93h.59v.59Z"/>
  <path class="cls-1" d="M126.56,4.1v4.69h-1.17V2.34h1.17v.59h.59v-.59h2.93v.59h.59v.59h.59v5.27h-1.17v-4.69h-.59v-.59h-.59v5.27h-1.17V3.52h-.59v.59h-.59Z"/>
</svg>