<?xml version="1.0" encoding="UTF-8"?>
<svg id="Layer_1" xmlns="http://www.w3.org/2000/svg" viewBox="0 0 907.02 393.48">
  <defs>
    <style>
      .cls-1 {
        fill: #fff;
      }
    </style>
  </defs>
  <path class="cls-1" d="M26.46,37.56l.36-.24v8.88l-.12.12-18.6,17.88,18.6,17.88.12.12v9l-.36-.24L2.28,67.92l-.12-.12v-7.2l.12-.12,24.18-22.92ZM26.34,38.76L2.64,61.32v5.76l23.7,22.68v-6.84l-18.9-18.24-.42-.48.42-.48,18.9-18.24v-6.72Z"/>
  <path class="cls-1" d="M59.04,82.92h.36l-.12.6-3.6,19.2-.06.36h-24.96v-4.08h1.56c.72,0,1.32-.48,1.8-1.44.48-.96.74-2.12.78-3.48v-55.44c0-1.28-.24-2.4-.72-3.36-.52-.88-1.14-1.32-1.86-1.32h-1.56v-4.08h17.82l1.86-.24,1.98-.6,1.74-.72,1.32-.84.3-.12v16.8h-2.1v-3.24c0-1.2-.2-2.24-.6-3.12-.44-.88-.98-1.36-1.62-1.44h-11.34v26.64h9.24c.56-.08.98-.44,1.26-1.08.28-.64.42-1.44.42-2.4v-3h2.1v19.32h-2.1v-3c0-.96-.14-1.72-.42-2.28-.24-.64-.62-1.04-1.14-1.2h-9.3v26.64h8.34c1.28-.08,2.38-.44,3.3-1.08.92-.72,1.7-1.6,2.34-2.64.68-1.12,1.26-2.44,1.74-3.96.48-1.6.92-3.32,1.32-5.16l.06-.24h1.86ZM58.68,83.88h-1.14c-.4,1.76-.84,3.4-1.32,4.92-.52,1.68-1.12,3.08-1.8,4.2-.72,1.2-1.56,2.12-2.52,2.76-.96.72-2.12,1.12-3.48,1.2h-8.82v-28.56h9.84c.64.16,1.14.64,1.5,1.44.32.88.48,1.88.48,3v2.04h1.14v-17.4h-1.14v2.04c0,1.12-.18,2.12-.54,3-.36.88-.9,1.36-1.62,1.44h-9.72v-28.56h11.82c.8.08,1.44.64,1.92,1.68.52,1.04.78,2.32.78,3.84v2.28h1.14v-14.64l-.96.6h-.06l-1.8.84-1.98.6h-.06l-1.86.24h-17.34v2.16h1.08c.88,0,1.6.56,2.16,1.68.6,1.04.9,2.36.9,3.96v55.44c-.04,1.68-.34,3.08-.9,4.2-.56,1.12-1.28,1.68-2.16,1.68h-1.08v2.16h24.12l3.42-18.24Z"/>
  <path class="cls-1" d="M64.86,30v-.48h.24l19.92.12c2.92.08,5.58,1,7.98,2.76,2.4,1.76,4.46,4.2,6.18,7.32,1.68,3.12,3,6.88,3.96,11.28.92,4.48,1.38,9.52,1.38,15.12s-.46,10.76-1.38,15.24c-.92,4.48-2.22,8.32-3.9,11.52-1.68,3.2-3.72,5.6-6.12,7.2-2.4,1.68-5.1,2.52-8.1,2.52l-19.98-.12-.24.12v-4.08h1.5c.72,0,1.32-.48,1.8-1.44.48-1.04.74-2.24.78-3.6v-54.96c-.04-1.36-.3-2.52-.78-3.48-.52-.88-1.12-1.32-1.8-1.32h-1.44v-3.72ZM65.34,30.48v2.28h.96c.84,0,1.54.56,2.1,1.68.6,1.04.92,2.4.96,4.08v54.96c-.04,1.68-.34,3.08-.9,4.2-.56,1.2-1.28,1.8-2.16,1.8h-1.02v2.16l19.74-.12c2.92,0,5.56-.8,7.92-2.4,2.36-1.68,4.36-4.03,6-7.07,1.64-3.03,2.9-6.75,3.78-11.14.88-4.39,1.32-9.34,1.32-14.86s-.46-10.3-1.38-14.62c-.88-4.39-2.16-8.11-3.84-11.14-1.64-3.03-3.64-5.39-6-7.07-2.36-1.68-4.96-2.56-7.8-2.64l-19.68-.12ZM73.68,35.64v-.48h11.34c2.2,0,4.18.72,5.94,2.16,1.76,1.44,3.26,3.48,4.5,6.12,1.28,2.72,2.24,6,2.88,9.84.64,3.84.96,8.16.96,12.96,0,9.68-1.28,17.24-3.84,22.68-2.52,5.44-6,8.16-10.44,8.16h-11.34v-61.44ZM74.16,36.12v60h10.86c4.28,0,7.66-2.64,10.14-7.92,2.44-5.28,3.66-12.6,3.66-21.96,0-4.64-.32-8.84-.96-12.6-.64-3.76-1.54-6.92-2.7-9.48-1.2-2.64-2.66-4.64-4.38-6-1.72-1.36-3.64-2.04-5.76-2.04h-10.86Z"/>
  <path class="cls-1" d="M124.32,102v.48h-14.7v-4.08h1.5c.88,0,1.62-.48,2.22-1.44.6-.96.94-2.08,1.02-3.36v-55.08c-.08-1.28-.42-2.4-1.02-3.36-.6-.96-1.34-1.44-2.22-1.44h-1.5v-4.2h14.7v4.2h-1.5c-.84,0-1.56.48-2.16,1.44-.6.96-.94,2.04-1.02,3.24v55.2c.04,1.28.36,2.4.96,3.36.6.96,1.34,1.44,2.22,1.44h1.5v3.6ZM123.84,101.52v-2.16h-1.02c-.96,0-1.8-.56-2.52-1.68-.72-1.12-1.1-2.48-1.14-4.08v-55.2c.08-1.52.48-2.84,1.2-3.96.72-1.12,1.54-1.68,2.46-1.68h1.02v-2.28h-13.74v2.28h1.02c.96,0,1.8.56,2.52,1.68.72,1.12,1.12,2.48,1.2,4.08v55.08c-.08,1.6-.48,2.96-1.2,4.08-.72,1.12-1.56,1.68-2.52,1.68h-1.02v2.16h13.74Z"/>
  <path class="cls-1" d="M135.18,29.4h18.96l1.86-.24,1.98-.6,1.8-.72,1.32-.84.3-.12v16.8h-2.1v-3.24c0-1.2-.2-2.24-.6-3.12-.44-.88-.98-1.36-1.62-1.44h-9.78v57.72c.04,1.28.32,2.4.84,3.36.52.96,1.14,1.44,1.86,1.44h1.44v4.08h-13.5v-4.08h1.44c.72,0,1.34-.48,1.86-1.44.48-.96.76-2.12.84-3.48v-57.6h-9.84c-.64.08-1.16.56-1.56,1.44-.4.88-.6,1.92-.6,3.12v3.24h-2.16v-16.8l.3.12,1.32.84,1.8.72,1.98.6,1.86.24ZM135.18,30.36l-1.86-.24h-.06l-1.98-.6-1.86-.84-1.02-.6v14.64h1.2v-2.28c0-1.52.24-2.8.72-3.84.48-1.04,1.12-1.6,1.92-1.68h10.32v58.56c-.08,1.68-.42,3.08-1.02,4.2-.56,1.12-1.28,1.68-2.16,1.68h-.96v2.16h12.54v-2.16h-.96c-.88,0-1.62-.56-2.22-1.68-.6-1.12-.92-2.48-.96-4.08v-58.68h10.26c.8.08,1.44.64,1.92,1.68.52,1.04.78,2.32.78,3.84v2.28h1.14v-14.64l-1.02.6-1.86.84-1.98.6h-.06l-1.86.24h-18.96Z"/>
  <path class="cls-1" d="M179.16,102v.48h-14.7v-4.08h1.5c.88,0,1.62-.48,2.22-1.44.6-.96.94-2.08,1.02-3.36v-55.08c-.08-1.28-.42-2.4-1.02-3.36-.6-.96-1.34-1.44-2.22-1.44h-1.5v-4.2h14.7v4.2h-1.5c-.84,0-1.56.48-2.16,1.44-.6.96-.94,2.04-1.02,3.24v55.2c.04,1.28.36,2.4.96,3.36.6.96,1.34,1.44,2.22,1.44h1.5v3.6ZM178.68,101.52v-2.16h-1.02c-.96,0-1.8-.56-2.52-1.68-.72-1.12-1.1-2.48-1.14-4.08v-55.2c.08-1.52.48-2.84,1.2-3.96.72-1.12,1.54-1.68,2.46-1.68h1.02v-2.28h-13.74v2.28h1.02c.96,0,1.8.56,2.52,1.68.72,1.12,1.12,2.48,1.2,4.08v55.08c-.08,1.6-.48,2.96-1.2,4.08-.72,1.12-1.56,1.68-2.52,1.68h-1.02v2.16h13.74Z"/>
  <path class="cls-1" d="M214.08,30v-.48h.24l12.06.24h.24v4.08h-1.68c-.68,0-1.26.44-1.74,1.32-.48.88-.76,1.92-.84,3.12v49.68l.06,5.52.24,5.16.3,5.16v.48h-1.68l-.06-.12-29.28-55.56v45.24c.08,1.28.36,2.4.84,3.36.48.88,1.04,1.32,1.68,1.32h1.74v4.08h-12.48v-4.08h1.74c.64,0,1.22-.44,1.74-1.32.48-.96.74-2.08.78-3.36v-49.92c0-1.92-.04-3.8-.12-5.64l-.24-5.04-.36-4.8-.06-.6h1.86l.06.12,29.22,55.08v-45c-.08-1.2-.36-2.24-.84-3.12-.48-.88-1.04-1.32-1.68-1.32h-1.74v-3.6ZM214.56,30.48v2.16h1.26c.8,0,1.48.52,2.04,1.56.56,1.04.88,2.32.96,3.84v47.16l-.42-.72-29.58-55.68h-1.02l.3,4.32v.12l.24,4.92c.08,1.92.12,3.84.12,5.76v49.92c-.04,1.6-.36,2.92-.96,3.96-.56,1.12-1.24,1.68-2.04,1.68h-1.26v2.16h11.52v-2.16h-1.26c-.8,0-1.48-.56-2.04-1.68-.56-1.04-.88-2.36-.96-3.96v-47.4l.42.72,29.64,56.16h.96l-.3-4.68-.18-5.04-.12-5.64v-49.68c.08-1.52.4-2.8.96-3.84.56-1.04,1.26-1.56,2.1-1.56h1.2v-2.16l-11.58-.24Z"/>
  <path class="cls-1" d="M268.5,73.56l.12,14.52v.12l-.06.12c-.72,1.92-1.64,3.8-2.76,5.64-1.12,1.84-2.4,3.56-3.84,5.16-1.48,1.52-3.1,2.76-4.86,3.72-1.8.96-3.76,1.44-5.88,1.44-3,0-5.72-.88-8.16-2.64-2.44-1.84-4.54-4.4-6.3-7.68-1.72-3.28-3.06-7.24-4.02-11.88-.96-4.72-1.44-10.04-1.44-15.96s.48-11.24,1.44-15.96c.96-4.72,2.3-8.72,4.02-12,1.76-3.28,3.86-5.8,6.3-7.56,2.44-1.76,5.16-2.64,8.16-2.64,2.8,0,5.34.6,7.62,1.8,2.28,1.2,4.46,3.12,6.54,5.76l.12.12v.12l1.44,18,.06.6h-1.98l-.06-.36c-.84-6.8-2.36-11.76-4.56-14.88-2.24-3.2-5.34-4.8-9.3-4.8-2.12,0-4.06.72-5.82,2.16-1.76,1.44-3.26,3.52-4.5,6.24-1.2,2.72-2.14,6.04-2.82,9.96-.68,4-1.02,8.44-1.02,13.32s.34,9.28,1.02,13.2c.68,3.92,1.62,7.24,2.82,9.96,1.24,2.8,2.74,4.92,4.5,6.36,1.76,1.44,3.7,2.16,5.82,2.16,2.28,0,4.44-.76,6.48-2.28,2-1.44,3.88-3.8,5.64-7.08l.06-7.32.06-7.56c0-.96-.18-1.68-.54-2.16-.36-.56-.86-.84-1.5-.84h-1.08v-3.6h11.22v3.6h-1.08c-1.24,0-1.86,1.04-1.86,3.12ZM268.02,73.56c0-2.72.78-4.08,2.34-4.08h.6v-1.68h-10.26v1.68h.6c.72,0,1.32.32,1.8.96.48.72.72,1.72.72,3l-.06,7.56-.06,7.56v.24l-.06.12c-1.84,3.36-3.8,5.84-5.88,7.44-2.08,1.52-4.3,2.28-6.66,2.28-2.2,0-4.2-.76-6-2.28-1.8-1.52-3.34-3.68-4.62-6.48-1.32-2.88-2.32-6.32-3-10.32-.68-4-1.02-8.52-1.02-13.56s.34-9.56,1.02-13.56c.68-4.08,1.68-7.52,3-10.32,1.28-2.8,2.82-4.96,4.62-6.48,1.8-1.52,3.8-2.28,6-2.28,4.04,0,7.22,1.64,9.54,4.92,2.28,3.28,3.86,8.32,4.74,15.12h1.02l-1.38-17.28c-2-2.48-4.12-4.28-6.36-5.4-2.24-1.2-4.72-1.8-7.44-1.8-2.92,0-5.58.84-7.98,2.52-2.4,1.68-4.44,4.12-6.12,7.32-1.72,3.2-3.04,7.12-3.96,11.76-.92,4.64-1.38,9.84-1.38,15.6s.46,10.92,1.38,15.48c.92,4.64,2.24,8.56,3.96,11.76,1.68,3.2,3.72,5.64,6.12,7.32,2.4,1.76,5.06,2.64,7.98,2.64,2.04,0,3.94-.48,5.7-1.44,1.8-.96,3.4-2.2,4.8-3.72,1.44-1.44,2.7-3.08,3.78-4.92,1.04-1.76,1.92-3.52,2.64-5.28l-.12-14.4Z"/>
  <path class="cls-1" d="M275.7,38.04v-.72l.36.24,24.18,22.92.12.12v7.2l-.12.12-24.18,23.04-.36.24v-9l.12-.12,18.54-17.88-18.54-17.88-.12-.12v-8.16ZM276.18,38.76v6.72l18.84,18.24.42.48-.42.48-18.84,18.24v6.84l23.7-22.68v-5.76l-23.7-22.56Z"/>
</svg>
