<?xml version="1.0" encoding="UTF-8"?>
<svg xmlns="http://www.w3.org/2000/svg" version="1.1" viewBox="0 0 56.2 11.6">
  <defs>
    <style>
      .cls-1 {
        fill: #fff;
      }

      .cls-2 {
        isolation: isolate;
      }
    </style>
  </defs>
  <!-- Generator: Adobe Illustrator 28.7.3, SVG Export Plug-In . SVG Version: 1.2.0 Build 164)  -->
  <g>
    <g id="Layer_1">
      <g class="cls-2">
        <g class="cls-2">
          <path class="cls-1" d="M5.9,2.8h.6v1.2h-1.2v-.6h-.6v-.6h-2.3v.6h-.6v4.7h.6v.6h2.3v-.6h.6v-1.8h-1.8v-1.2h2.9v3.5h-.6v.6h-.6v.6H1.8v-.6h-.6v-.6h-.6V2.8h.6v-.6h.6v-.6h3.5v.6h.6v.6Z"/>
          <path class="cls-1" d="M9.4,6.3h-.6v3.5h-1.2V1.6h4.7v.6h.6v.6h.6v2.3h-.6v.6h-.6v.6h-1.2v.6h.6v.6h.6v.6h.6v.6h.6v1.2h-1.2v-.6h-.6v-.6h-.6v-.6h-.6v-.6h-.6v-.6h-.6v-.6ZM8.8,2.8v2.3h2.9v-.6h.6v-1.2h-.6v-.6h-2.9Z"/>
          <path class="cls-1" d="M15.8,9.8h-1.2V3.9h.6v-.6h.6v-.6h.6v-.6h.6v-.6h1.2v.6h.6v.6h.6v.6h.6v.6h.6v5.9h-1.2v-2.3h-3.5v2.3ZM15.8,6.3h3.5v-1.8h-.6v-.6h-.6v-.6h-1.2v.6h-.6v.6h-.6v1.8Z"/>
          <path class="cls-1" d="M22.9,6.3v3.5h-1.2V1.6h4.7v.6h.6v.6h.6v2.3h-.6v.6h-.6v.6h-3.5ZM22.9,2.8v2.3h2.9v-.6h.6v-1.2h-.6v-.6h-2.9Z"/>
          <path class="cls-1" d="M29.9,6.3v3.5h-1.2V1.6h1.2v3.5h3.5V1.6h1.2v8.2h-1.2v-3.5h-3.5Z"/>
          <path class="cls-1" d="M36.9,9.8v-1.2h1.2V2.8h-1.2v-1.2h3.5v1.2h-1.2v5.9h1.2v1.2h-3.5Z"/>
          <path class="cls-1" d="M44.5,8.6h2.3v-.6h.6v-.6h1.2v1.2h-.6v.6h-.6v.6h-3.5v-.6h-.6v-.6h-.6V2.8h.6v-.6h.6v-.6h3.5v.6h.6v.6h.6v1.2h-1.2v-.6h-.6v-.6h-2.3v.6h-.6v4.7h.6v.6Z"/>
          <path class="cls-1" d="M55.1,2.8h.6v1.2h-1.2v-.6h-.6v-.6h-2.3v.6h-.6v1.2h.6v.6h2.9v.6h.6v.6h.6v2.3h-.6v.6h-.6v.6h-3.5v-.6h-.6v-.6h-.6v-1.2h1.2v.6h.6v.6h2.3v-.6h.6v-1.2h-.6v-.6h-2.9v-.6h-.6v-.6h-.6v-2.3h.6v-.6h.6v-.6h3.5v.6h.6v.6Z"/>
        </g>
      </g>
    </g>
  </g>
</svg>