<?xml version="1.0" encoding="UTF-8"?>
<svg id="Layer_1" xmlns="http://www.w3.org/2000/svg" viewBox="0 0 1448.98 546.49">
  <defs>
    <style>
      .cls-1 {
        fill: #fff;
      }
    </style>
  </defs>
  <path class="cls-1" d="M110.25,156.5l1.5-1v37l-.5.5-77.5,74.5,77.5,74.5.5.5v37.5l-1.5-1L9.5,283l-.5-.5v-30l.5-.5,100.75-95.5ZM109.75,161.5L11,255.5v24l98.75,94.5v-28.5l-78.75-76-1.75-2,1.75-2,78.75-76v-28Z"/>
  <path class="cls-1" d="M285,306.5l.5,60.5v.5l-.25.5c-3,8-6.84,15.84-11.5,23.5-4.67,7.67-10,14.84-16,21.5-6.17,6.34-12.92,11.5-20.25,15.5-7.5,4-15.67,6-24.5,6-12.5,0-23.84-3.67-34-11-10.17-7.66-18.92-18.33-26.25-32-7.17-13.66-12.75-30.16-16.75-49.5-4-19.66-6-41.83-6-66.5s2-46.83,6-66.5c4-19.66,9.58-36.33,16.75-50,7.33-13.66,16.08-24.16,26.25-31.5,10.16-7.33,21.5-11,34-11,11.66,0,22.25,2.5,31.75,7.5s18.58,13,27.25,24l.5.5v.5l6,75,.25,2.5h-8.25l-.25-1.5c-3.5-28.33-9.84-49-19-62-9.34-13.33-22.25-20-38.75-20-8.84,0-16.92,3-24.25,9-7.34,6-13.59,14.67-18.75,26-5,11.34-8.92,25.17-11.75,41.5-2.84,16.67-4.25,35.17-4.25,55.5s1.41,38.67,4.25,55c2.83,16.34,6.75,30.17,11.75,41.5,5.16,11.67,11.41,20.5,18.75,26.5,7.33,6,15.41,9,24.25,9,9.5,0,18.5-3.16,27-9.5,8.33-6,16.16-15.83,23.5-29.5l.25-30.5.25-31.5c0-4-.75-7-2.25-9-1.5-2.33-3.59-3.5-6.25-3.5h-4.5v-15h46.75v15h-4.5c-5.17,0-7.75,4.34-7.75,13ZM283,306.5c0-11.33,3.25-17,9.75-17h2.5v-7h-42.75v7h2.5c3,0,5.5,1.34,7.5,4,2,3,3,7.17,3,12.5l-.25,31.5-.25,31.5v1l-.25.5c-7.67,14-15.84,24.34-24.5,31-8.67,6.34-17.92,9.5-27.75,9.5-9.17,0-17.5-3.16-25-9.5-7.5-6.33-13.92-15.33-19.25-27-5.5-12-9.67-26.33-12.5-43-2.84-16.66-4.25-35.5-4.25-56.5s1.41-39.83,4.25-56.5c2.83-17,7-31.33,12.5-43,5.33-11.66,11.75-20.66,19.25-27,7.5-6.33,15.83-9.5,25-9.5,16.83,0,30.08,6.84,39.75,20.5,9.5,13.67,16.08,34.67,19.75,63h4.25l-5.75-72c-8.34-10.33-17.17-17.83-26.5-22.5-9.34-5-19.67-7.5-31-7.5-12.17,0-23.25,3.5-33.25,10.5s-18.5,17.17-25.5,30.5c-7.17,13.34-12.67,29.67-16.5,49-3.84,19.34-5.75,41-5.75,65s1.91,45.5,5.75,64.5c3.83,19.34,9.33,35.67,16.5,49,7,13.34,15.5,23.5,25.5,30.5,10,7.33,21.08,11,33.25,11,8.5,0,16.41-2,23.75-6,7.5-4,14.16-9.16,20-15.5,6-6,11.25-12.83,15.75-20.5,4.33-7.33,8-14.66,11-22l-.5-60Z"/>
  <path class="cls-1" d="M309.74,125v-2h1l62.75.5c15.83.67,28.5,8.34,38,23,9.66,15,14.5,35.67,14.5,62,0,10.34-.84,20-2.5,29-1.67,9.34-4.09,17.84-7.25,25.5-3.17,7.34-6.92,13.67-11.25,19-3.67,4.67-7.67,8.17-12,10.5,2,3.67,4.08,8,6.25,13,2.66,6,5,11.84,7,17.5l6.75,18.5,6.75,16.5,7.5,17.5,6.75,14.5c2.16,4.34,4.33,8,6.5,11,2.33,3,4.83,5.34,7.5,7,2.66,1.67,5.66,2.5,9,2.5h1v17h-10.5c-7.17,0-13.25-1.5-18.25-4.5-5.17-2.66-9.59-6.33-13.25-11-3.84-4.33-6.92-9.16-9.25-14.5l-6.75-14.5c-.84-2-2.5-6.66-5-14-2.5-7.66-5.17-15.33-8-23l-11-31c-3-7.33-6.42-14.16-10.25-20.5-3.5-5.66-9.34-8.66-17.5-9v104c.16,5.34,1.25,10,3.25,14s4.5,6,7.5,6h6.5v17h-56v-17h6.5c3,0,5.5-1.83,7.5-5.5,2-4,3.08-8.66,3.25-14v-230.5c-.17-5.33-1.25-9.83-3.25-13.5-2-3.66-4.5-5.5-7.5-5.5h-6.25v-15.5ZM311.74,127v9.5h4.25c3.66,0,6.66,2.17,9,6.5,2.33,4.34,3.58,9.84,3.75,16.5v230.5c-.17,6.67-1.42,12.17-3.75,16.5-2.34,4.67-5.34,7-9,7h-4.5v9h52v-9h-4.5c-3.67,0-6.67-2.33-9-7-2.34-4.66-3.59-10.33-3.75-17v-108h1c9.16,0,15.83,3.34,20,10,3.83,6.34,7.25,13.5,10.25,21.5l11,31c2.83,7.67,5.5,15.17,8,22.5,2.5,7.34,4.16,11.84,5,13.5l6.5,15c2.5,5,5.5,9.67,9,14,3.66,4,7.91,7.5,12.75,10.5,5,2.67,10.91,4,17.75,4h8.5v-9c-3.17,0-6.09-.83-8.75-2.5-2.84-1.66-5.42-4.16-7.75-7.5-2.5-3.33-4.84-7.16-7-11.5l-6.75-14.5-7.5-17.5v-.5l-6.75-17-6.75-18c-2-5.66-4.34-11.5-7-17.5-2.67-6-5.17-11-7.5-15l-1.75-2.5,2-1c4.83-2.33,9.33-6,13.5-11,4-5,7.5-11.16,10.5-18.5,3-7,5.33-14.83,7-23.5,1.66-9,2.5-18.33,2.5-28,0-25-4.5-44.5-13.5-58.5-9.17-14.33-21.5-21.83-37-22.5l-61.75-.5ZM347.24,272.5h-1v-126h17l9.75.5c9.5,1,17,6.5,22.5,16.5s8.33,23.84,8.5,41.5l.25,4c0,8.67-.59,16.17-1.75,22.5-1.84,10-4,17.67-6.5,23-2.67,5.34-5.5,9.34-8.5,12-3.17,2.67-6.5,4.17-10,4.5l-8.75,1-6.75.5h-14.75ZM348.24,268.5h20.25l9-1c3.16-.66,6.16-2.16,9-4.5,3-2.33,5.66-6,8-11,2.5-5,4.5-12.16,6-21.5,1.16-6.33,1.75-13.5,1.75-21.5l-.25-4c-.17-16.33-2.84-29.16-8-38.5-5.17-9.33-12.17-14.5-21-15.5l-9.75-.5h-15v118Z"/>
  <path class="cls-1" d="M546.49,116h.75l.25,1,60.5,268c2,9,4.5,15.5,7.5,19.5,2.83,3.67,5.58,5.5,8.25,5.5h5v17h-56v-17h5c1.66,0,3.16-1.16,4.5-3.5,1.33-2.33,2-5.66,2-10l-.75-7.5-12.5-60.5h-57.25l-12.5,59.5c-.67,2.67-1,5.5-1,8.5,0,4.34.66,7.67,2,10,1.33,2.34,2.75,3.5,4.25,3.5h5v17h-52.5v-17h5c2.66,0,5.5-1.83,8.5-5.5,3-4,5.58-10.5,7.75-19.5l50.5-215.5,4.5-19.5,3.25-17.5c.83-6,1.33-10.83,1.5-14.5v-2h6.5ZM545.74,120h-3.75c-.34,3.67-.92,8.17-1.75,13.5l-3,17.5v.5l-4.5,20-50.5,215.5c-2.5,9.67-5.42,16.5-8.75,20.5-3.34,4.34-6.5,6.5-9.5,6.5h-3v9h48.5v-9h-3c-2.17,0-4.09-1.5-5.75-4.5-1.67-3-2.5-7.33-2.5-13,0-3.66.33-7.16,1-10.5l12.75-60.5.25-1h60.25l.25,1,12.75,62v.5l.75,8v.5c0,5.67-.92,10-2.75,13-1.84,3-3.75,4.5-5.75,4.5h-3v9h52v-9h-3c-3,0-6.17-2.16-9.5-6.5-3.17-4-5.92-10.83-8.25-20.5l-60.25-267ZM517.74,305.5h-1.5l.5-3,25-118,1-4,1,4,24.25,118,.5,3h-50.75ZM519.24,301.5h46.25l-22.75-111-23.5,111Z"/>
  <path class="cls-1" d="M637.24,125v-2h1l59.75.5c8.66.34,16.58,2.67,23.75,7,7.16,4,13.33,9.84,18.5,17.5,5.16,7.67,9.16,17,12,28,2.83,11,4.25,23.34,4.25,37,0,14.67-1.25,27.84-3.75,39.5-2.67,11.67-6.17,21-10.5,28-4.34,7-9.34,12.5-15,16.5-5.67,4.34-11.75,6.5-18.25,6.5-4.5,0-9.09-1.5-13.75-4.5-4.67-3-9.5-6.83-14.5-11.5l-.5-.5v-11.5l1.25.5,4.75,2,4.5,1.5,5.25.5c3,0,6.16-.5,9.5-1.5,3.33-1.33,6.58-3.66,9.75-7,3.33-3.33,6.41-8.16,9.25-14.5,2.66-6.33,4.91-14.5,6.75-24.5l1.25-11.5.25-13c0-17.66-3.09-31.66-9.25-42-6.17-10.33-14.84-15.5-26-15.5h-20.5v239.5c.16,5.67,1.25,10.5,3.25,14.5,2.16,4,4.75,6,7.75,6h6.5v17h-56.75v-17h6.5c3,0,5.5-2,7.5-6s3.08-8.83,3.25-14.5v-230c-.17-5.33-1.34-10-3.5-14-2.17-3.66-4.75-5.5-7.75-5.5h-6.5v-15.5ZM639.24,127v9.5h4.5c3.66,0,6.75,2.34,9.25,7,2.5,4.34,3.83,9.84,4,16.5v230c-.17,7-1.42,12.84-3.75,17.5s-5.34,7-9,7h-4.5v9h52.75v-9h-4.5c-3.67,0-6.67-2.33-9-7-2.5-4.66-3.84-10.5-4-17.5v-243.5h22.5c11.5,0,20.58,5.5,27.25,16.5,6.66,11,10,26,10,45l-.5,13v.5l-1,12c-1.84,10.67-4.34,19.34-7.5,26-3,6.67-6.17,11.84-9.5,15.5-3.5,3.67-7,6-10.5,7-3.5,1.34-6.75,2-9.75,2l-5.5-.5-4.75-1.5-3.5-1.5v3.5c4.66,4.67,9.16,8.34,13.5,11,4.66,3,9.08,4.5,13.25,4.5,6.16,0,12-2,17.5-6,5.5-4.33,10.33-9.83,14.5-16.5,4.16-6.66,7.41-15.5,9.75-26.5,2.5-11,3.75-23.5,3.75-37.5,0-13-1.34-24.66-4-35-2.67-10.33-6.5-19.16-11.5-26.5-5-7.33-11-13.16-18-17.5-7-4-14.67-6.16-23-6.5l-58.75-.5Z"/>
  <path class="cls-1" d="M939.24,425v2h-1l-54.25.5h-1v-17h5.75c3,0,5.58-2,7.75-6,2.16-4,3.33-8.83,3.5-14.5v-99.5h-83.5v99.5c.16,5.67,1.33,10.5,3.5,14.5,2.16,4,4.75,6,7.75,6h5.75v17h-55.75v-17h5.75c3,0,5.58-2,7.75-6,2.16-4,3.33-8.83,3.5-14.5v-229c-.17-5.33-1.34-10-3.5-14-2.17-4-4.75-6-7.75-6h-5.75v-17.5h55.75v17.5h-6c-2.84,0-5.34,1.84-7.5,5.5-2,4-3.09,8.5-3.25,13.5v103.5h83.5v-103c-.17-5.33-1.34-10-3.5-14-2.17-4-4.75-6-7.75-6h-5.75v-17.5h55.75v17.5h-5.75c-2.84,0-5.34,2-7.5,6-2,4-3.17,8.5-3.5,13.5v229.5c.16,5.67,1.33,10.5,3.5,14.5,2.16,4,4.75,6,7.75,6h5.75v15ZM937.24,423v-9h-3.75c-3.67,0-6.75-2.33-9.25-7-2.5-4.66-3.84-10.5-4-17.5v-229.5c.33-6.33,1.75-11.83,4.25-16.5,2.33-4.66,5.25-7,8.75-7h3.75v-9.5h-51.75v9.5h3.75c3.66,0,6.75,2.34,9.25,7,2.5,4.67,3.83,10.34,4,17v107h-87.5v-107.5c.16-6.33,1.5-11.66,4-16,2.33-4.66,5.25-7,8.75-7h4v-9.5h-51.75v9.5h3.75c3.66,0,6.75,2.34,9.25,7,2.5,4.67,3.83,10.34,4,17v229c-.17,7-1.5,12.84-4,17.5-2.5,4.67-5.59,7-9.25,7h-3.75v9h51.75v-9h-3.75c-3.67,0-6.75-2.33-9.25-7-2.5-4.66-3.84-10.5-4-17.5v-103.5h87.5v103.5c-.17,7-1.5,12.84-4,17.5-2.5,4.67-5.59,7-9.25,7h-3.75v9l52.25-.5Z"/>
  <path class="cls-1" d="M1024.24,425v2h-61.25v-17h6.25c3.66,0,6.75-2,9.25-6s3.91-8.66,4.25-14v-229.5c-.34-5.33-1.75-10-4.25-14s-5.59-6-9.25-6h-6.25v-17.5h61.25v17.5h-6.25c-3.5,0-6.5,2-9,6s-3.92,8.5-4.25,13.5v230c.16,5.34,1.5,10,4,14s5.58,6,9.25,6h6.25v15ZM1022.24,423v-9h-4.25c-4,0-7.5-2.33-10.5-7-3-4.66-4.59-10.33-4.75-17v-230c.33-6.33,2-11.83,5-16.5,3-4.66,6.41-7,10.25-7h4.25v-9.5h-57.25v9.5h4.25c4,0,7.5,2.34,10.5,7,3,4.67,4.66,10.34,5,17v229.5c-.34,6.67-2,12.34-5,17-3,4.67-6.5,7-10.5,7h-4.25v9h57.25Z"/>
  <path class="cls-1" d="M1196.24,294v-2h8.25v2l-2.75,72.5v.5l-.25.5c-6.67,20.67-16.25,37-28.75,49-12.5,11.66-26.17,17.5-41,17.5-12.84,0-24.34-3.67-34.5-11-10.34-7.66-19.17-18.33-26.5-32-7.17-13.66-12.75-30.33-16.75-50-3.84-19.33-5.75-41.33-5.75-66s1.91-46.83,5.75-66.5c4-19.66,9.58-36.33,16.75-50,7.33-13.66,16.16-24.16,26.5-31.5,10.16-7.33,21.66-11,34.5-11,10.5,0,21,2.84,31.5,8.5,10.5,5.67,19.75,13.5,27.75,23.5l.5.5v.5l6,75,.25,2.5h-8.25l-.25-1.5c-3.67-29.33-10.59-50.33-20.75-63-10.17-12.66-22.5-19-37-19-9.17,0-17.42,3-24.75,9-7.34,6-13.59,14.67-18.75,26-5,11.34-8.92,25.17-11.75,41.5-2.84,16.67-4.25,35.17-4.25,55.5s1.41,37.67,4.25,54c2.83,16,6.91,29.67,12.25,41,5.16,11.34,11.41,20.17,18.75,26.5,7.33,6.34,15.66,9.67,25,10,8.66,0,16.75-2.16,24.25-6.5,7.5-4.66,14.08-11.5,19.75-20.5,5.66-9.33,10.25-21,13.75-35s5.58-30.83,6.25-50.5ZM1198.24,296c-.84,19.34-3,36.17-6.5,50.5-3.67,14.67-8.42,26.67-14.25,36-5.84,9.67-12.59,16.67-20.25,21-7.67,4.67-16,7-25,7h-.25c-9.5-.33-18-3.83-25.5-10.5-7.5-6.66-14-15.83-19.5-27.5-5.34-11.66-9.5-25.83-12.5-42.5-3-16.33-4.5-34.66-4.5-55s1.41-39.83,4.25-56.5c2.83-17,7-31.33,12.5-43,5.33-11.66,11.75-20.66,19.25-27,7.5-6.33,16-9.5,25.5-9.5,14.83,0,27.5,6.5,38,19.5,10.33,13,17.5,34.34,21.5,64h4.25l-5.75-72c-7.84-9.33-16.84-16.66-27-22-10.34-5.66-20.59-8.5-30.75-8.5-12.5,0-23.84,3.5-34,10.5-10,7-18.5,17.17-25.5,30.5-7.17,13.34-12.59,29.67-16.25,49-3.84,19.34-5.75,41-5.75,65s1.91,45.67,5.75,65c3.66,19,9.08,35.17,16.25,48.5,7,13.34,15.5,23.5,25.5,30.5,10.16,7.33,21.5,11,34,11,14.5,0,27.83-5.83,40-17.5,12.16-11.33,21.5-26.83,28-46.5l2.75-70h-4.25Z"/>
  <path class="cls-1" d="M1255.73,216.5l48.75,76h.25c4,7,7,15.84,9,26.5,1.83,10.34,2.83,20.67,3,31,0,11.67-1.25,22.67-3.75,33-2.5,10-5.84,18.84-10,26.5-4.17,7.67-9.09,13.84-14.75,18.5-5.5,4.33-11.42,6.5-17.75,6.5-3.67,0-7.59-.5-11.75-1.5-4.34-1-8.42-2.5-12.25-4.5-4-2-7.84-4.66-11.5-8-3.5-3.33-6.5-7.16-9-11.5l-.25-.5v-.5l-.75-9-.25-10.5c0-7,.33-15,1-24,.66-8.66,1.66-16.83,3-24.5l.25-1.5h8.5v2l-.5,7.5v5c0,17,2.75,30.17,8.25,39.5,5.33,9.67,12.41,14.5,21.25,14.5h1.75c9.33-.66,16.58-5.16,21.75-13.5,5.16-8.33,7.75-19.66,7.75-34,0-6.33-.59-12.33-1.75-18-1.17-5.66-3.17-10.83-6-15.5l-48.5-75h-.25c-4.84-8.66-8.17-18.16-10-28.5-1.67-10-2.59-19.66-2.75-29,0-10.66,1.08-20.83,3.25-30.5,2.33-9.33,5.41-17.5,9.25-24.5,4-6.66,8.66-12.16,14-16.5,5.16-4,10.83-6,17-6,5.5,0,10.25.5,14.25,1.5,3.83.67,7.16,1.67,10,3l9.75-.5,1,.5v2l.75,61v2h-9v-2c0-12.66-2-22.66-6-30-4-7-10.25-10.5-18.75-10.5-3.67,0-7.17,1-10.5,3-3.17,2.34-6,5.34-8.5,9-2.34,3.67-4.17,7.84-5.5,12.5-1.34,4.67-2,9.84-2,15.5,0,5.34.58,11,1.75,17,1,5.67,3.16,11.17,6.5,16.5ZM1254.73,219.5h-.25c-3.5-6-5.92-12.16-7.25-18.5-1.17-6-1.75-12-1.75-18,0-6.33.75-12.16,2.25-17.5,1.5-5.33,3.58-10,6.25-14,2.5-4,5.5-7,9-9,3.33-2.33,7-3.5,11-3.5,9.16,0,15.91,4,20.25,12,4.16,7.34,6.33,17.5,6.5,30.5h5l-.75-57.5h-9c-2.84-1.14-6.17-2.14-10-3-3.84-.66-8.5-1-14-1-5.84,0-11.34,2-16.5,6-5,3.67-9.34,8.84-13,15.5-3.84,6.34-6.75,14.17-8.75,23.5-2.17,9-3.25,18.5-3.25,28.5.16,8.67,1.08,18,2.75,28,1.5,9.67,4.66,18.5,9.5,26.5l48.5,75c3,5.34,5.16,11,6.5,17,1.33,6,2,12.5,2,19.5,0,15.67-2.84,28-8.5,37-5.67,9-13.34,13.84-23,14.5h-1.75c-9.17,0-16.75-5-22.75-15-5.84-10.33-8.75-24.66-8.75-43l.25-5,.25-5.5h-5c-1.17,7-2.09,14.67-2.75,23-.67,8.34-1,16-1,23l.25,10,.75,8c2.16,4,4.91,7.5,8.25,10.5,3.33,3,6.91,5.5,10.75,7.5,4,2,8,3.5,12,4.5,4.16,1,8.08,1.5,11.75,1.5,6,0,11.75-2.17,17.25-6.5,5.33-4,10-9.66,14-17,4-7.33,7.16-16,9.5-26,2.33-9.66,3.5-20,3.5-31-.17-9.66-1.17-19.66-3-30-1.67-10-4.5-18.16-8.5-24.5l-48.5-76Z"/>
  <path class="cls-1" d="M1337.98,158.5v-3l1.5,1,100.75,95.5.5.5v30l-.5.5-100.75,96-1.5,1v-37.5l.5-.5,77.25-74.5-77.25-74.5-.5-.5v-34ZM1339.98,161.5v28l78.5,76,1.75,2-1.75,2-78.5,76v28.5l98.75-94.5v-24l-98.75-94Z"/>
</svg>