<?xml version="1.0" encoding="UTF-8"?>
<svg id="Layer_1" xmlns="http://www.w3.org/2000/svg" viewBox="0 0 1392.23 546.49">
  <defs>
    <style>
      .cls-1 {
        fill: #fff;
      }
    </style>
  </defs>
  <path class="cls-1" d="M10.25,125v-2h60.25v17.5h-6.25c-3.67,0-6.67,2-9,6-2.5,4-3.84,8.84-4,14.5v262c0,12.66-1.34,24.66-4,36-2.84,11-6.5,20.83-11,29.5-4.67,8.33-10,15-16,20s-12.34,7.5-19,7.5H.25v-15.5l.75-.5c3.66-2.34,7.25-6,10.75-11,3.33-5.34,6.33-11.5,9-18.5,2.5-7,4.58-14.5,6.25-22.5,1.5-8.34,2.25-16.67,2.25-25V159c-.34-5-1.67-9.33-4-13-2.5-3.66-5.42-5.5-8.75-5.5h-6.25v-15.5ZM12.25,127v9.5h4.25c3.66,0,6.91,2.17,9.75,6.5,3,4.34,4.66,9.67,5,16v264c0,9-.84,17.66-2.5,26-1.5,8.66-3.67,16.66-6.5,24-2.67,7.33-5.84,13.66-9.5,19-3.34,5.33-6.84,9.16-10.5,11.5v8.5c6-.34,11.75-2.67,17.25-7,5.83-4.67,10.91-11.17,15.25-19.5,4.5-8,8-17.5,10.5-28.5,2.66-10.67,4-22,4-34V161c.16-7,1.66-12.83,4.5-17.5,3-4.66,6.5-7,10.5-7h4.25v-9.5H12.25Z"/>
  <path class="cls-1" d="M193,125v-2h1l46.25-1h1v17.5h-6.75c-2.34,0-4.25,1.34-5.75,4-1.67,2.67-2.59,6-2.75,10v164c0,18-1.5,34.17-4.5,48.5-3,14-7.25,26-12.75,36-5.5,10.34-12.17,18.17-20,23.5-7.84,5.33-16.67,8-26.5,8-19.84,0-35.42-10.16-46.75-30.5-11.34-20.33-17-48.5-17-84.5v-164c-.34-4-1.25-7.5-2.75-10.5-1.67-3-3.67-4.5-6-4.5h-6.5v-17.5h52.25v17.5h-6.75c-2.17,0-4.09,1.5-5.75,4.5-1.67,3-2.59,6.5-2.75,10.5v157.5c0,30,3.75,53.5,11.25,70.5,7.33,17,17.5,25.5,30.5,25.5,14.5,0,25.83-8,34-24,8.16-16,12.25-38,12.25-66v-163.5c-.17-4-1.09-7.33-2.75-10-1.5-3-3.42-4.5-5.75-4.5h-6.75v-15ZM195,127v9h4.75c2.66,0,5.08,1.67,7.25,5,2,3.67,3.08,8.17,3.25,13.5v163.5c0,29.34-4.25,52.34-12.75,69-8.5,16.67-20.34,25-35.5,25-13.67,0-24.42-9-32.25-27-7.67-18-11.5-42.33-11.5-73v-157.5c.16-5.33,1.25-9.83,3.25-13.5,2-3.66,4.41-5.5,7.25-5.5h4.75v-9.5h-48.25v9.5h4.5c3,0,5.41,1.84,7.25,5.5,2,3.67,3.16,8,3.5,13v164.5c0,34.67,5.5,61.84,16.5,81.5,11,19.67,26.08,29.5,45.25,29.5,9.5,0,18.08-2.67,25.75-8,7.66-5.33,14.16-12.66,19.5-22,5.33-9.66,9.41-21.5,12.25-35.5,2.83-13.66,4.25-29.16,4.25-46.5v-164c.16-5.33,1.25-9.66,3.25-13,2.16-3.33,4.58-5,7.25-5h4.75v-9.5l-44.25,1Z"/>
  <path class="cls-1" d="M265.75,125v-2h1l83,.5c12.16.34,23.25,4.17,33.25,11.5,10,7.34,18.58,17.5,25.75,30.5,7,13,12.5,28.67,16.5,47,3.83,18.67,5.75,39.67,5.75,63s-1.92,44.84-5.75,63.5c-3.84,18.67-9.25,34.67-16.25,48-7,13.34-15.5,23.34-25.5,30-10,7-21.25,10.5-33.75,10.5l-83.25-.5-1,.5v-17h6.25c3,0,5.5-2,7.5-6,2-4.33,3.08-9.33,3.25-15v-229c-.17-5.66-1.25-10.5-3.25-14.5-2.17-3.66-4.67-5.5-7.5-5.5h-6v-15.5ZM267.75,127v9.5h4c3.5,0,6.41,2.34,8.75,7,2.5,4.34,3.83,10,4,17v229c-.17,7-1.42,12.84-3.75,17.5-2.34,5-5.34,7.5-9,7.5h-4.25v9l82.25-.5c12.16,0,23.16-3.33,33-9.98,9.83-6.98,18.16-16.8,25-29.45,6.83-12.64,12.08-28.12,15.75-46.42,3.66-18.3,5.5-38.93,5.5-61.9s-1.92-42.93-5.75-60.9c-3.67-18.3-9-33.77-16-46.42-6.84-12.64-15.17-22.46-25-29.45-9.84-6.98-20.67-10.65-32.5-10.98l-82-.5ZM302.5,148.5v-2h47.25c9.16,0,17.41,3,24.75,9,7.33,6,13.58,14.5,18.75,25.5,5.33,11.34,9.33,25,12,41,2.66,16,4,34,4,54,0,40.34-5.34,71.84-16,94.5-10.5,22.67-25,34-43.5,34h-47.25V148.5ZM304.5,150.5v250h45.25c17.83,0,31.91-11,42.25-33,10.16-22,15.25-52.5,15.25-91.5,0-19.33-1.34-36.83-4-52.5-2.67-15.66-6.42-28.83-11.25-39.5-5-11-11.09-19.33-18.25-25-7.17-5.66-15.17-8.5-24-8.5h-45.25Z"/>
  <path class="cls-1" d="M568,345.5h1.5l-.5,2.5-15,80-.25,1.5h-104v-17h6.5c3,0,5.5-2,7.5-6s3.08-8.83,3.25-14.5v-231c0-5.33-1-10-3-14-2.17-3.66-4.75-5.5-7.75-5.5h-6.5v-17h74.25l7.75-1,8.25-2.5,7.25-3,5.5-3.5,1.25-.5v70h-8.75v-13.5c0-5-.84-9.33-2.5-13-1.84-3.66-4.09-5.66-6.75-6h-47.25v111h38.5c2.33-.33,4.08-1.83,5.25-4.5,1.16-2.66,1.75-6,1.75-10v-12.5h8.75v80.5h-8.75v-12.5c0-4-.59-7.16-1.75-9.5-1-2.66-2.59-4.33-4.75-5h-38.75v111h34.75c5.33-.33,9.91-1.83,13.75-4.5,3.83-3,7.08-6.66,9.75-11,2.83-4.66,5.25-10.16,7.25-16.5,2-6.66,3.83-13.83,5.5-21.5l.25-1h7.75ZM566.5,349.5h-4.75c-1.67,7.34-3.5,14.17-5.5,20.5-2.17,7-4.67,12.84-7.5,17.5-3,5-6.5,8.84-10.5,11.5-4,3-8.84,4.67-14.5,5h-36.75v-119h41c2.66.67,4.75,2.67,6.25,6,1.33,3.67,2,7.84,2,12.5v8.5h4.75v-72.5h-4.75v8.5c0,4.67-.75,8.84-2.25,12.5-1.5,3.67-3.75,5.67-6.75,6h-40.5v-119h49.25c3.33.34,6,2.67,8,7,2.16,4.34,3.25,9.67,3.25,16v9.5h4.75v-61l-4,2.5h-.25l-7.5,3.5-8.25,2.5h-.25l-7.75,1h-72.25v9h4.5c3.66,0,6.66,2.34,9,7,2.5,4.34,3.75,9.84,3.75,16.5v231c-.17,7-1.42,12.84-3.75,17.5s-5.34,7-9,7h-4.5v9h100.5l14.25-76Z"/>
  <path class="cls-1" d="M805.99,306.5l.5,60.5v.5l-.25.5c-3,8-6.84,15.84-11.5,23.5-4.67,7.67-10,14.84-16,21.5-6.17,6.34-12.92,11.5-20.25,15.5-7.5,4-15.67,6-24.5,6-12.5,0-23.84-3.67-34-11-10.17-7.66-18.92-18.33-26.25-32-7.17-13.66-12.75-30.16-16.75-49.5-4-19.66-6-41.83-6-66.5s2-46.83,6-66.5c4-19.66,9.58-36.33,16.75-50,7.33-13.66,16.08-24.16,26.25-31.5,10.16-7.33,21.5-11,34-11,11.66,0,22.25,2.5,31.75,7.5s18.58,13,27.25,24l.5.5v.5l6,75,.25,2.5h-8.25l-.25-1.5c-3.5-28.33-9.84-49-19-62-9.34-13.33-22.25-20-38.75-20-8.84,0-16.92,3-24.25,9-7.34,6-13.59,14.67-18.75,26-5,11.34-8.92,25.17-11.75,41.5-2.84,16.67-4.25,35.17-4.25,55.5s1.41,38.67,4.25,55c2.83,16.34,6.75,30.17,11.75,41.5,5.16,11.67,11.41,20.5,18.75,26.5,7.33,6,15.41,9,24.25,9,9.5,0,18.5-3.16,27-9.5,8.33-6,16.16-15.83,23.5-29.5l.25-30.5.25-31.5c0-4-.75-7-2.25-9-1.5-2.33-3.59-3.5-6.25-3.5h-4.5v-15h46.75v15h-4.5c-5.17,0-7.75,4.34-7.75,13ZM803.99,306.5c0-11.33,3.25-17,9.75-17h2.5v-7h-42.75v7h2.5c3,0,5.5,1.34,7.5,4,2,3,3,7.17,3,12.5l-.25,31.5-.25,31.5v1l-.25.5c-7.67,14-15.84,24.34-24.5,31-8.67,6.34-17.92,9.5-27.75,9.5-9.17,0-17.5-3.16-25-9.5-7.5-6.33-13.92-15.33-19.25-27-5.5-12-9.67-26.33-12.5-43-2.84-16.66-4.25-35.5-4.25-56.5s1.41-39.83,4.25-56.5c2.83-17,7-31.33,12.5-43,5.33-11.66,11.75-20.66,19.25-27,7.5-6.33,15.83-9.5,25-9.5,16.83,0,30.08,6.84,39.75,20.5,9.5,13.67,16.08,34.67,19.75,63h4.25l-5.75-72c-8.34-10.33-17.17-17.83-26.5-22.5-9.34-5-19.67-7.5-31-7.5-12.17,0-23.25,3.5-33.25,10.5s-18.5,17.17-25.5,30.5c-7.17,13.34-12.67,29.67-16.5,49-3.84,19.34-5.75,41-5.75,65s1.91,45.5,5.75,64.5c3.83,19.34,9.33,35.67,16.5,49,7,13.34,15.5,23.5,25.5,30.5,10,7.33,21.08,11,33.25,11,8.5,0,16.41-2,23.75-6,7.5-4,14.16-9.16,20-15.5,6-6,11.25-12.83,15.75-20.5,4.33-7.33,8-14.66,11-22l-.5-60Z"/>
  <path class="cls-1" d="M830.74,125v-2h1l62.75.5c15.83.67,28.5,8.34,38,23,9.66,15,14.5,35.67,14.5,62,0,10.34-.84,20-2.5,29-1.67,9.34-4.09,17.84-7.25,25.5-3.17,7.34-6.92,13.67-11.25,19-3.67,4.67-7.67,8.17-12,10.5,2,3.67,4.08,8,6.25,13,2.66,6,5,11.84,7,17.5l6.75,18.5,6.75,16.5,7.5,17.5,6.75,14.5c2.16,4.34,4.33,8,6.5,11,2.33,3,4.83,5.34,7.5,7,2.66,1.67,5.66,2.5,9,2.5h1v17h-10.5c-7.17,0-13.25-1.5-18.25-4.5-5.17-2.66-9.59-6.33-13.25-11-3.84-4.33-6.92-9.16-9.25-14.5l-6.75-14.5c-.84-2-2.5-6.66-5-14-2.5-7.66-5.17-15.33-8-23l-11-31c-3-7.33-6.42-14.16-10.25-20.5-3.5-5.66-9.34-8.66-17.5-9v104c.16,5.34,1.25,10,3.25,14s4.5,6,7.5,6h6.5v17h-56v-17h6.5c3,0,5.5-1.83,7.5-5.5,2-4,3.08-8.66,3.25-14v-230.5c-.17-5.33-1.25-9.83-3.25-13.5-2-3.66-4.5-5.5-7.5-5.5h-6.25v-15.5ZM832.74,127v9.5h4.25c3.66,0,6.66,2.17,9,6.5,2.33,4.34,3.58,9.84,3.75,16.5v230.5c-.17,6.67-1.42,12.17-3.75,16.5-2.34,4.67-5.34,7-9,7h-4.5v9h52v-9h-4.5c-3.67,0-6.67-2.33-9-7-2.34-4.66-3.59-10.33-3.75-17v-108h1c9.16,0,15.83,3.34,20,10,3.83,6.34,7.25,13.5,10.25,21.5l11,31c2.83,7.67,5.5,15.17,8,22.5,2.5,7.34,4.16,11.84,5,13.5l6.5,15c2.5,5,5.5,9.67,9,14,3.66,4,7.91,7.5,12.75,10.5,5,2.67,10.91,4,17.75,4h8.5v-9c-3.17,0-6.09-.83-8.75-2.5-2.84-1.66-5.42-4.16-7.75-7.5-2.5-3.33-4.84-7.16-7-11.5l-6.75-14.5-7.5-17.5v-.5l-6.75-17-6.75-18c-2-5.66-4.34-11.5-7-17.5-2.67-6-5.17-11-7.5-15l-1.75-2.5,2-1c4.83-2.33,9.33-6,13.5-11,4-5,7.5-11.16,10.5-18.5,3-7,5.33-14.83,7-23.5,1.66-9,2.5-18.33,2.5-28,0-25-4.5-44.5-13.5-58.5-9.17-14.33-21.5-21.83-37-22.5l-61.75-.5ZM868.24,272.5h-1v-126h17l9.75.5c9.5,1,17,6.5,22.5,16.5s8.33,23.84,8.5,41.5l.25,4c0,8.67-.59,16.17-1.75,22.5-1.84,10-4,17.67-6.5,23-2.67,5.34-5.5,9.34-8.5,12-3.17,2.67-6.5,4.17-10,4.5l-8.75,1-6.75.5h-14.75ZM869.24,268.5h20.25l9-1c3.16-.66,6.16-2.16,9-4.5,3-2.33,5.66-6,8-11,2.5-5,4.5-12.16,6-21.5,1.16-6.33,1.75-13.5,1.75-21.5l-.25-4c-.17-16.33-2.84-29.16-8-38.5-5.17-9.33-12.17-14.5-21-15.5l-9.75-.5h-15v118Z"/>
  <path class="cls-1" d="M1066.49,116c11.83,0,22.83,3.84,33,11.5,10.33,8,19.41,19,27.25,33,7.66,14,13.75,30.67,18.25,50,4.5,19.34,6.75,40.84,6.75,64.5s-2.25,45.17-6.75,64.5c-4.5,19.34-10.59,36-18.25,50-7.84,14-16.92,25-27.25,33-10.17,7.66-21.17,11.5-33,11.5s-22.92-3.84-33.25-11.5c-10.34-8-19.42-19-27.25-33-7.67-14-13.75-30.66-18.25-50-4.5-19.33-6.75-40.83-6.75-64.5s2.25-45.16,6.75-64.5c4.5-19.33,10.58-36,18.25-50,7.83-14,16.91-25,27.25-33,10.33-7.66,21.41-11.5,33.25-11.5ZM1066.49,120c-11.5,0-22.34,3.84-32.5,11.5-10.17,7.34-19,17.84-26.5,31.5-7.67,13.67-13.67,30-18,49-4.34,19-6.5,40-6.5,63s2.16,44,6.5,63c4.33,19,10.33,35.34,18,49,7.5,13.67,16.33,24.17,26.5,31.5,10.16,7.66,21,11.5,32.5,11.5s22.33-3.84,32.5-11.5c10-7.33,18.75-17.83,26.25-31.5,7.66-13.66,13.66-30,18-49,4.33-19,6.5-40,6.5-63s-2.17-44-6.5-63c-4.34-19-10.34-35.33-18-49-7.5-13.66-16.25-24.16-26.25-31.5-10.17-7.66-21-11.5-32.5-11.5ZM1066.49,411.5c-8.84,0-17.09-3.34-24.75-10.02-7.67-6.68-14.34-15.87-20-27.55-5.67-12.02-10.17-26.38-13.5-43.08-3.17-16.7-4.75-35.23-4.75-55.6s1.58-38.9,4.75-55.6c3.33-16.7,7.83-31.05,13.5-43.08,5.66-11.69,12.33-20.87,20-27.55,7.66-6.67,15.91-10.02,24.75-10.02s17.08,3.34,24.75,10.02c7.5,6.69,14.08,15.87,19.75,27.55,5.66,12.02,10.16,26.38,13.5,43.08,3.16,16.7,4.75,35.23,4.75,55.6s-1.59,38.91-4.75,55.6c-3.34,16.7-7.84,31.06-13.5,43.08-5.67,11.69-12.25,20.88-19.75,27.55-7.67,6.68-15.92,10.02-24.75,10.02ZM1066.49,407.5c8.5,0,16.41-3.17,23.75-9.52,7.5-6.34,14-15.37,19.5-27.05,5.5-11.35,9.75-25.21,12.75-41.58,3.16-16.36,4.75-34.4,4.75-54.1s-1.59-37.73-4.75-54.1c-3-16.36-7.25-30.22-12.75-41.58-5.5-11.69-12-20.7-19.5-27.05-7.34-6.34-15.25-9.52-23.75-9.52s-16.5,3.17-24,9.52c-7.5,6.35-14,15.37-19.5,27.05-5.5,11.36-9.75,25.22-12.75,41.58-3.17,16.37-4.75,34.4-4.75,54.1s1.58,37.74,4.75,54.1c3,16.37,7.25,30.23,12.75,41.58,5.5,11.69,12,20.71,19.5,27.05s15.5,9.52,24,9.52Z"/>
  <path class="cls-1" d="M1203.74,216.5l48.75,76h.25c4,7,7,15.84,9,26.5,1.83,10.34,2.83,20.67,3,31,0,11.67-1.25,22.67-3.75,33-2.5,10-5.84,18.84-10,26.5-4.17,7.67-9.09,13.84-14.75,18.5-5.5,4.33-11.42,6.5-17.75,6.5-3.67,0-7.59-.5-11.75-1.5-4.34-1-8.42-2.5-12.25-4.5-4-2-7.84-4.66-11.5-8-3.5-3.33-6.5-7.16-9-11.5l-.25-.5v-.5l-.75-9-.25-10.5c0-7,.33-15,1-24,.66-8.66,1.66-16.83,3-24.5l.25-1.5h8.5v2l-.5,7.5v5c0,17,2.75,30.17,8.25,39.5,5.33,9.67,12.41,14.5,21.25,14.5h1.75c9.33-.66,16.58-5.16,21.75-13.5,5.16-8.33,7.75-19.66,7.75-34,0-6.33-.59-12.33-1.75-18-1.17-5.66-3.17-10.83-6-15.5l-48.5-75h-.25c-4.84-8.66-8.17-18.16-10-28.5-1.67-10-2.59-19.66-2.75-29,0-10.66,1.08-20.83,3.25-30.5,2.33-9.33,5.41-17.5,9.25-24.5,4-6.66,8.66-12.16,14-16.5,5.16-4,10.83-6,17-6,5.5,0,10.25.5,14.25,1.5,3.83.67,7.16,1.67,10,3l9.75-.5,1,.5v2l.75,61v2h-9v-2c0-12.66-2-22.66-6-30-4-7-10.25-10.5-18.75-10.5-3.67,0-7.17,1-10.5,3-3.17,2.34-6,5.34-8.5,9-2.34,3.67-4.17,7.84-5.5,12.5-1.34,4.67-2,9.84-2,15.5,0,5.34.58,11,1.75,17,1,5.67,3.16,11.17,6.5,16.5ZM1202.74,219.5h-.25c-3.5-6-5.92-12.16-7.25-18.5-1.17-6-1.75-12-1.75-18,0-6.33.75-12.16,2.25-17.5,1.5-5.33,3.58-10,6.25-14,2.5-4,5.5-7,9-9,3.33-2.33,7-3.5,11-3.5,9.16,0,15.91,4,20.25,12,4.16,7.34,6.33,17.5,6.5,30.5h5l-.75-57.5h-9c-2.84-1.14-6.17-2.14-10-3-3.84-.66-8.5-1-14-1-5.84,0-11.34,2-16.5,6-5,3.67-9.34,8.84-13,15.5-3.84,6.34-6.75,14.17-8.75,23.5-2.17,9-3.25,18.5-3.25,28.5.16,8.67,1.08,18,2.75,28,1.5,9.67,4.66,18.5,9.5,26.5l48.5,75c3,5.34,5.16,11,6.5,17,1.33,6,2,12.5,2,19.5,0,15.67-2.84,28-8.5,37-5.67,9-13.34,13.84-23,14.5h-1.75c-9.17,0-16.75-5-22.75-15-5.84-10.33-8.75-24.66-8.75-43l.25-5,.25-5.5h-5c-1.17,7-2.09,14.67-2.75,23-.67,8.34-1,16-1,23l.25,10,.75,8c2.16,4,4.91,7.5,8.25,10.5,3.33,3,6.91,5.5,10.75,7.5,4,2,8,3.5,12,4.5,4.16,1,8.08,1.5,11.75,1.5,6,0,11.75-2.17,17.25-6.5,5.33-4,10-9.66,14-17,4-7.33,7.16-16,9.5-26,2.33-9.66,3.5-20,3.5-31-.17-9.66-1.17-19.66-3-30-1.67-10-4.5-18.16-8.5-24.5l-48.5-76Z"/>
  <path class="cls-1" d="M1319.24,216.5l48.75,76h.25c4,7,7,15.84,9,26.5,1.83,10.34,2.83,20.67,3,31,0,11.67-1.25,22.67-3.75,33-2.5,10-5.84,18.84-10,26.5-4.17,7.67-9.09,13.84-14.75,18.5-5.5,4.33-11.42,6.5-17.75,6.5-3.67,0-7.59-.5-11.75-1.5-4.34-1-8.42-2.5-12.25-4.5-4-2-7.84-4.66-11.5-8-3.5-3.33-6.5-7.16-9-11.5l-.25-.5v-.5l-.75-9-.25-10.5c0-7,.33-15,1-24,.66-8.66,1.66-16.83,3-24.5l.25-1.5h8.5v2l-.5,7.5v5c0,17,2.75,30.17,8.25,39.5,5.33,9.67,12.41,14.5,21.25,14.5h1.75c9.33-.66,16.58-5.16,21.75-13.5,5.16-8.33,7.75-19.66,7.75-34,0-6.33-.59-12.33-1.75-18-1.17-5.66-3.17-10.83-6-15.5l-48.5-75h-.25c-4.84-8.66-8.17-18.16-10-28.5-1.67-10-2.59-19.66-2.75-29,0-10.66,1.08-20.83,3.25-30.5,2.33-9.33,5.41-17.5,9.25-24.5,4-6.66,8.66-12.16,14-16.5,5.16-4,10.83-6,17-6,5.5,0,10.25.5,14.25,1.5,3.83.67,7.16,1.67,10,3l9.75-.5,1,.5v2l.75,61v2h-9v-2c0-12.66-2-22.66-6-30-4-7-10.25-10.5-18.75-10.5-3.67,0-7.17,1-10.5,3-3.17,2.34-6,5.34-8.5,9-2.34,3.67-4.17,7.84-5.5,12.5-1.34,4.67-2,9.84-2,15.5,0,5.34.58,11,1.75,17,1,5.67,3.16,11.17,6.5,16.5ZM1318.24,219.5h-.25c-3.5-6-5.92-12.16-7.25-18.5-1.17-6-1.75-12-1.75-18,0-6.33.75-12.16,2.25-17.5,1.5-5.33,3.58-10,6.25-14,2.5-4,5.5-7,9-9,3.33-2.33,7-3.5,11-3.5,9.16,0,15.91,4,20.25,12,4.16,7.34,6.33,17.5,6.5,30.5h5l-.75-57.5h-9c-2.84-1.14-6.17-2.14-10-3-3.84-.66-8.5-1-14-1-5.84,0-11.34,2-16.5,6-5,3.67-9.34,8.84-13,15.5-3.84,6.34-6.75,14.17-8.75,23.5-2.17,9-3.25,18.5-3.25,28.5.16,8.67,1.08,18,2.75,28,1.5,9.67,4.66,18.5,9.5,26.5l48.5,75c3,5.34,5.16,11,6.5,17,1.33,6,2,12.5,2,19.5,0,15.67-2.84,28-8.5,37-5.67,9-13.34,13.84-23,14.5h-1.75c-9.17,0-16.75-5-22.75-15-5.84-10.33-8.75-24.66-8.75-43l.25-5,.25-5.5h-5c-1.17,7-2.09,14.67-2.75,23-.67,8.34-1,16-1,23l.25,10,.75,8c2.16,4,4.91,7.5,8.25,10.5,3.33,3,6.91,5.5,10.75,7.5,4,2,8,3.5,12,4.5,4.16,1,8.08,1.5,11.75,1.5,6,0,11.75-2.17,17.25-6.5,5.33-4,10-9.66,14-17,4-7.33,7.16-16,9.5-26,2.33-9.66,3.5-20,3.5-31-.17-9.66-1.17-19.66-3-30-1.67-10-4.5-18.16-8.5-24.5l-48.5-76Z"/>
</svg>