<?xml version="1.0" encoding="UTF-8"?>
<svg xmlns="http://www.w3.org/2000/svg" version="1.1" viewBox="0 0 70.3 11.6">
  <defs>
    <style>
      .cls-1 {
        fill: #fff;
      }

      .cls-2 {
        isolation: isolate;
      }
    </style>
  </defs>
  <!-- Generator: Adobe Illustrator 28.7.3, SVG Export Plug-In . SVG Version: 1.2.0 Build 164)  -->
  <g>
    <g id="Layer_1">
      <g class="cls-2">
        <g class="cls-2">
          <path class="cls-1" d="M1.2,8.6h-.6v-1.2h1.2v.6h.6v.6h1.2v-.6h.6V2.8h-1.2v-1.2h3.5v1.2h-1.2v5.9h-.6v.6h-.6v.6H1.8v-.6h-.6v-.6Z"/>
          <path class="cls-1" d="M8.2,8.6h-.6V1.6h1.2v6.4h.6v.6h2.3v-.6h.6V1.6h1.2v7h-.6v.6h-.6v.6h-3.5v-.6h-.6v-.6Z"/>
          <path class="cls-1" d="M14.6,9.8V1.6h4.7v.6h.6v.6h.6v5.9h-.6v.6h-.6v.6h-4.7ZM15.8,2.8v5.9h2.9v-.6h.6V3.4h-.6v-.6h-2.9Z"/>
          <path class="cls-1" d="M27.5,1.6v1.2h-4.7v2.3h3.5v1.2h-3.5v2.3h4.7v1.2h-5.9V1.6h5.9Z"/>
          <path class="cls-1" d="M41,2.8h.6v1.2h-1.2v-.6h-.6v-.6h-2.3v.6h-.6v4.7h.6v.6h2.3v-.6h.6v-1.8h-1.8v-1.2h2.9v3.5h-.6v.6h-.6v.6h-3.5v-.6h-.6v-.6h-.6V2.8h.6v-.6h.6v-.6h3.5v.6h.6v.6Z"/>
          <path class="cls-1" d="M44.5,6.3h-.6v3.5h-1.2V1.6h4.7v.6h.6v.6h.6v2.3h-.6v.6h-.6v.6h-1.2v.6h.6v.6h.6v.6h.6v.6h.6v1.2h-1.2v-.6h-.6v-.6h-.6v-.6h-.6v-.6h-.6v-.6h-.6v-.6ZM43.9,2.8v2.3h2.9v-.6h.6v-1.2h-.6v-.6h-2.9Z"/>
          <path class="cls-1" d="M51,2.2v-.6h3.5v.6h.6v.6h.6v5.9h-.6v.6h-.6v.6h-3.5v-.6h-.6v-.6h-.6V2.8h.6v-.6h.6ZM53.9,2.8h-2.3v.6h-.6v4.7h.6v.6h2.3v-.6h.6V3.4h-.6v-.6Z"/>
          <path class="cls-1" d="M62.1,2.8h.6v1.2h-1.2v-.6h-.6v-.6h-2.3v.6h-.6v1.2h.6v.6h2.9v.6h.6v.6h.6v2.3h-.6v.6h-.6v.6h-3.5v-.6h-.6v-.6h-.6v-1.2h1.2v.6h.6v.6h2.3v-.6h.6v-1.2h-.6v-.6h-2.9v-.6h-.6v-.6h-.6v-2.3h.6v-.6h.6v-.6h3.5v.6h.6v.6Z"/>
          <path class="cls-1" d="M69.1,2.8h.6v1.2h-1.2v-.6h-.6v-.6h-2.3v.6h-.6v1.2h.6v.6h2.9v.6h.6v.6h.6v2.3h-.6v.6h-.6v.6h-3.5v-.6h-.6v-.6h-.6v-1.2h1.2v.6h.6v.6h2.3v-.6h.6v-1.2h-.6v-.6h-2.9v-.6h-.6v-.6h-.6v-2.3h.6v-.6h.6v-.6h3.5v.6h.6v.6Z"/>
        </g>
      </g>
    </g>
  </g>
</svg>