<?xml version="1.0" encoding="UTF-8"?>
<svg id="Layer_1" xmlns="http://www.w3.org/2000/svg" viewBox="0 0 334.14 131.16">
  <defs>
    <style>
      .cls-1 {
        fill: #fff;
      }
    </style>
  </defs>
  <path class="cls-1" d="M2.46,30v-.48h14.46v4.2h-1.5c-.88,0-1.6.48-2.16,1.44-.6.96-.92,2.12-.96,3.48v62.88c0,3.04-.32,5.92-.96,8.64-.68,2.64-1.56,5-2.64,7.08-1.12,2-2.4,3.6-3.84,4.8-1.44,1.2-2.96,1.8-4.56,1.8H.06v-3.72l.18-.12c.88-.56,1.74-1.44,2.58-2.64.8-1.28,1.52-2.76,2.16-4.44.6-1.68,1.1-3.48,1.5-5.4.36-2,.54-4,.54-6v-63.36c-.08-1.2-.4-2.24-.96-3.12-.6-.88-1.3-1.32-2.1-1.32h-1.5v-3.72ZM2.94,30.48v2.28h1.02c.88,0,1.66.52,2.34,1.56.72,1.04,1.12,2.32,1.2,3.84v63.36c0,2.16-.2,4.24-.6,6.24-.36,2.08-.88,4-1.56,5.76-.64,1.76-1.4,3.28-2.28,4.56-.8,1.28-1.64,2.2-2.52,2.76v2.04c1.44-.08,2.82-.64,4.14-1.68,1.4-1.12,2.62-2.68,3.66-4.68,1.08-1.92,1.92-4.2,2.52-6.84.64-2.56.96-5.28.96-8.16v-62.88c.04-1.68.4-3.08,1.08-4.2.72-1.12,1.56-1.68,2.52-1.68h1.02v-2.28H2.94Z"/>
  <path class="cls-1" d="M46.32,30v-.48h.24l11.1-.24h.24v4.2h-1.62c-.56,0-1.02.32-1.38.96-.4.64-.62,1.44-.66,2.4v39.36c0,4.32-.36,8.2-1.08,11.64-.72,3.36-1.74,6.24-3.06,8.64-1.32,2.48-2.92,4.36-4.8,5.64-1.88,1.28-4,1.92-6.36,1.92-4.76,0-8.5-2.44-11.22-7.32-2.72-4.88-4.08-11.64-4.08-20.28v-39.36c-.08-.96-.3-1.8-.66-2.52-.4-.72-.88-1.08-1.44-1.08h-1.56v-4.2h12.54v4.2h-1.62c-.52,0-.98.36-1.38,1.08-.4.72-.62,1.56-.66,2.52v37.8c0,7.2.9,12.84,2.7,16.92,1.76,4.08,4.2,6.12,7.32,6.12,3.48,0,6.2-1.92,8.16-5.76,1.96-3.84,2.94-9.12,2.94-15.84v-39.24c-.04-.96-.26-1.76-.66-2.4-.36-.72-.82-1.08-1.38-1.08h-1.62v-3.6ZM46.8,30.48v2.16h1.14c.64,0,1.22.4,1.74,1.2.48.88.74,1.96.78,3.24v39.24c0,7.04-1.02,12.56-3.06,16.56-2.04,4-4.88,6-8.52,6-3.28,0-5.86-2.16-7.74-6.48-1.84-4.32-2.76-10.16-2.76-17.52v-37.8c.04-1.28.3-2.36.78-3.24.48-.88,1.06-1.32,1.74-1.32h1.14v-2.28h-11.58v2.28h1.08c.72,0,1.3.44,1.74,1.32.48.88.76,1.92.84,3.12v39.48c0,8.32,1.32,14.84,3.96,19.56,2.64,4.72,6.26,7.08,10.86,7.08,2.28,0,4.34-.64,6.18-1.92,1.84-1.28,3.4-3.04,4.68-5.28,1.28-2.32,2.26-5.16,2.94-8.52.68-3.28,1.02-7,1.02-11.16v-39.36c.04-1.28.3-2.32.78-3.12.52-.8,1.1-1.2,1.74-1.2h1.14v-2.28l-10.62.24Z"/>
  <path class="cls-1" d="M63.78,30v-.48h.24l19.92.12c2.92.08,5.58,1,7.98,2.76,2.4,1.76,4.46,4.2,6.18,7.32,1.68,3.12,3,6.88,3.96,11.28.92,4.48,1.38,9.52,1.38,15.12s-.46,10.76-1.38,15.24c-.92,4.48-2.22,8.32-3.9,11.52-1.68,3.2-3.72,5.6-6.12,7.2-2.4,1.68-5.1,2.52-8.1,2.52l-19.98-.12-.24.12v-4.08h1.5c.72,0,1.32-.48,1.8-1.44.48-1.04.74-2.24.78-3.6v-54.96c-.04-1.36-.3-2.52-.78-3.48-.52-.88-1.12-1.32-1.8-1.32h-1.44v-3.72ZM64.26,30.48v2.28h.96c.84,0,1.54.56,2.1,1.68.6,1.04.92,2.4.96,4.08v54.96c-.04,1.68-.34,3.08-.9,4.2-.56,1.2-1.28,1.8-2.16,1.8h-1.02v2.16l19.74-.12c2.92,0,5.56-.8,7.92-2.4,2.36-1.68,4.36-4.03,6-7.07,1.64-3.03,2.9-6.75,3.78-11.14.88-4.39,1.32-9.34,1.32-14.86s-.46-10.3-1.38-14.62c-.88-4.39-2.16-8.11-3.84-11.14-1.64-3.03-3.64-5.39-6-7.07-2.36-1.68-4.96-2.56-7.8-2.64l-19.68-.12ZM72.6,35.64v-.48h11.34c2.2,0,4.18.72,5.94,2.16,1.76,1.44,3.26,3.48,4.5,6.12,1.28,2.72,2.24,6,2.88,9.84.64,3.84.96,8.16.96,12.96,0,9.68-1.28,17.24-3.84,22.68-2.52,5.44-6,8.16-10.44,8.16h-11.34v-61.44ZM73.08,36.12v60h10.86c4.28,0,7.66-2.64,10.14-7.92,2.44-5.28,3.66-12.6,3.66-21.96,0-4.64-.32-8.84-.96-12.6-.64-3.76-1.54-6.92-2.7-9.48-1.2-2.64-2.66-4.64-4.38-6-1.72-1.36-3.64-2.04-5.76-2.04h-10.86Z"/>
  <path class="cls-1" d="M136.32,82.92h.36l-.12.6-3.6,19.2-.06.36h-24.96v-4.08h1.56c.72,0,1.32-.48,1.8-1.44.48-.96.74-2.12.78-3.48v-55.44c0-1.28-.24-2.4-.72-3.36-.52-.88-1.14-1.32-1.86-1.32h-1.56v-4.08h17.82l1.86-.24,1.98-.6,1.74-.72,1.32-.84.3-.12v16.8h-2.1v-3.24c0-1.2-.2-2.24-.6-3.12-.44-.88-.98-1.36-1.62-1.44h-11.34v26.64h9.24c.56-.08.98-.44,1.26-1.08.28-.64.42-1.44.42-2.4v-3h2.1v19.32h-2.1v-3c0-.96-.14-1.72-.42-2.28-.24-.64-.62-1.04-1.14-1.2h-9.3v26.64h8.34c1.28-.08,2.38-.44,3.3-1.08.92-.72,1.7-1.6,2.34-2.64.68-1.12,1.26-2.44,1.74-3.96.48-1.6.92-3.32,1.32-5.16l.06-.24h1.86ZM135.96,83.88h-1.14c-.4,1.76-.84,3.4-1.32,4.92-.52,1.68-1.12,3.08-1.8,4.2-.72,1.2-1.56,2.12-2.52,2.76-.96.72-2.12,1.12-3.48,1.2h-8.82v-28.56h9.84c.64.16,1.14.64,1.5,1.44.32.88.48,1.88.48,3v2.04h1.14v-17.4h-1.14v2.04c0,1.12-.18,2.12-.54,3-.36.88-.9,1.36-1.62,1.44h-9.72v-28.56h11.82c.8.08,1.44.64,1.92,1.68.52,1.04.78,2.32.78,3.84v2.28h1.14v-14.64l-.96.6h-.06l-1.8.84-1.98.6h-.06l-1.86.24h-17.34v2.16h1.08c.88,0,1.6.56,2.16,1.68.6,1.04.9,2.36.9,3.96v55.44c-.04,1.68-.34,3.08-.9,4.2-.56,1.12-1.28,1.68-2.16,1.68h-1.08v2.16h24.12l3.42-18.24Z"/>
  <path class="cls-1" d="M193.44,73.56l.12,14.52v.12l-.06.12c-.72,1.92-1.64,3.8-2.76,5.64-1.12,1.84-2.4,3.56-3.84,5.16-1.48,1.52-3.1,2.76-4.86,3.72-1.8.96-3.76,1.44-5.88,1.44-3,0-5.72-.88-8.16-2.64-2.44-1.84-4.54-4.4-6.3-7.68-1.72-3.28-3.06-7.24-4.02-11.88-.96-4.72-1.44-10.04-1.44-15.96s.48-11.24,1.44-15.96c.96-4.72,2.3-8.72,4.02-12,1.76-3.28,3.86-5.8,6.3-7.56,2.44-1.76,5.16-2.64,8.16-2.64,2.8,0,5.34.6,7.62,1.8,2.28,1.2,4.46,3.12,6.54,5.76l.12.12v.12l1.44,18,.06.6h-1.98l-.06-.36c-.84-6.8-2.36-11.76-4.56-14.88-2.24-3.2-5.34-4.8-9.3-4.8-2.12,0-4.06.72-5.82,2.16-1.76,1.44-3.26,3.52-4.5,6.24-1.2,2.72-2.14,6.04-2.82,9.96-.68,4-1.02,8.44-1.02,13.32s.34,9.28,1.02,13.2c.68,3.92,1.62,7.24,2.82,9.96,1.24,2.8,2.74,4.92,4.5,6.36,1.76,1.44,3.7,2.16,5.82,2.16,2.28,0,4.44-.76,6.48-2.28,2-1.44,3.88-3.8,5.64-7.08l.06-7.32.06-7.56c0-.96-.18-1.68-.54-2.16-.36-.56-.86-.84-1.5-.84h-1.08v-3.6h11.22v3.6h-1.08c-1.24,0-1.86,1.04-1.86,3.12ZM192.96,73.56c0-2.72.78-4.08,2.34-4.08h.6v-1.68h-10.26v1.68h.6c.72,0,1.32.32,1.8.96.48.72.72,1.72.72,3l-.06,7.56-.06,7.56v.24l-.06.12c-1.84,3.36-3.8,5.84-5.88,7.44-2.08,1.52-4.3,2.28-6.66,2.28-2.2,0-4.2-.76-6-2.28-1.8-1.52-3.34-3.68-4.62-6.48-1.32-2.88-2.32-6.32-3-10.32-.68-4-1.02-8.52-1.02-13.56s.34-9.56,1.02-13.56c.68-4.08,1.68-7.52,3-10.32,1.28-2.8,2.82-4.96,4.62-6.48,1.8-1.52,3.8-2.28,6-2.28,4.04,0,7.22,1.64,9.54,4.92,2.28,3.28,3.86,8.32,4.74,15.12h1.02l-1.38-17.28c-2-2.48-4.12-4.28-6.36-5.4-2.24-1.2-4.72-1.8-7.44-1.8-2.92,0-5.58.84-7.98,2.52-2.4,1.68-4.44,4.12-6.12,7.32-1.72,3.2-3.04,7.12-3.96,11.76-.92,4.64-1.38,9.84-1.38,15.6s.46,10.92,1.38,15.48c.92,4.64,2.24,8.56,3.96,11.76,1.68,3.2,3.72,5.64,6.12,7.32,2.4,1.76,5.06,2.64,7.98,2.64,2.04,0,3.94-.48,5.7-1.44,1.8-.96,3.4-2.2,4.8-3.72,1.44-1.44,2.7-3.08,3.78-4.92,1.04-1.76,1.92-3.52,2.64-5.28l-.12-14.4Z"/>
  <path class="cls-1" d="M199.38,30v-.48h.24l15.06.12c3.8.16,6.84,2,9.12,5.52,2.32,3.6,3.48,8.56,3.48,14.88,0,2.48-.2,4.8-.6,6.96-.4,2.24-.98,4.28-1.74,6.12-.76,1.76-1.66,3.28-2.7,4.56-.88,1.12-1.84,1.96-2.88,2.52.48.88.98,1.92,1.5,3.12.64,1.44,1.2,2.84,1.68,4.2l1.62,4.44,1.62,3.96,1.8,4.2,1.62,3.48c.52,1.04,1.04,1.92,1.56,2.64.56.72,1.16,1.28,1.8,1.68.64.4,1.36.6,2.16.6h.24v4.08h-2.52c-1.72,0-3.18-.36-4.38-1.08-1.24-.64-2.3-1.52-3.18-2.64-.92-1.04-1.66-2.2-2.22-3.48l-1.62-3.48c-.2-.48-.6-1.6-1.2-3.36-.6-1.84-1.24-3.68-1.92-5.52l-2.64-7.44c-.72-1.76-1.54-3.4-2.46-4.92-.84-1.36-2.24-2.08-4.2-2.16v24.96c.04,1.28.3,2.4.78,3.36.48.96,1.08,1.44,1.8,1.44h1.56v4.08h-13.44v-4.08h1.56c.72,0,1.32-.44,1.8-1.32.48-.96.74-2.08.78-3.36v-55.32c-.04-1.28-.3-2.36-.78-3.24-.48-.88-1.08-1.32-1.8-1.32h-1.5v-3.72ZM199.86,30.48v2.28h1.02c.88,0,1.6.52,2.16,1.56.56,1.04.86,2.36.9,3.96v55.32c-.04,1.6-.34,2.92-.9,3.96-.56,1.12-1.28,1.68-2.16,1.68h-1.08v2.16h12.48v-2.16h-1.08c-.88,0-1.6-.56-2.16-1.68-.56-1.12-.86-2.48-.9-4.08v-25.92h.24c2.2,0,3.8.8,4.8,2.4.92,1.52,1.74,3.24,2.46,5.16l2.64,7.44c.68,1.84,1.32,3.64,1.92,5.4.6,1.76,1,2.84,1.2,3.24l1.56,3.6c.6,1.2,1.32,2.32,2.16,3.36.88.96,1.9,1.8,3.06,2.52,1.2.64,2.62.96,4.26.96h2.04v-2.16c-.76,0-1.46-.2-2.1-.6-.68-.4-1.3-1-1.86-1.8-.6-.8-1.16-1.72-1.68-2.76l-1.62-3.48-1.8-4.2v-.12l-1.62-4.08-1.62-4.32c-.48-1.36-1.04-2.76-1.68-4.2-.64-1.44-1.24-2.64-1.8-3.6l-.42-.6.48-.24c1.16-.56,2.24-1.44,3.24-2.64.96-1.2,1.8-2.68,2.52-4.44.72-1.68,1.28-3.56,1.68-5.64.4-2.16.6-4.4.6-6.72,0-6-1.08-10.68-3.24-14.04-2.2-3.44-5.16-5.24-8.88-5.4l-14.82-.12ZM208.38,65.4h-.24v-30.24h4.08l2.34.12c2.28.24,4.08,1.56,5.4,3.96,1.32,2.4,2,5.72,2.04,9.96l.06.96c0,2.08-.14,3.88-.42,5.4-.44,2.4-.96,4.24-1.56,5.52-.64,1.28-1.32,2.24-2.04,2.88-.76.64-1.56,1-2.4,1.08l-2.1.24-1.62.12h-3.54ZM208.62,64.44h4.86l2.16-.24c.76-.16,1.48-.52,2.16-1.08.72-.56,1.36-1.44,1.92-2.64.6-1.2,1.08-2.92,1.44-5.16.28-1.52.42-3.24.42-5.16l-.06-.96c-.04-3.92-.68-7-1.92-9.24-1.24-2.24-2.92-3.48-5.04-3.72l-2.34-.12h-3.6v28.32Z"/>
  <path class="cls-1" d="M255.96,27.84c2.84,0,5.48.92,7.92,2.76,2.48,1.92,4.66,4.56,6.54,7.92,1.84,3.36,3.3,7.36,4.38,12,1.08,4.64,1.62,9.8,1.62,15.48s-.54,10.84-1.62,15.48c-1.08,4.64-2.54,8.64-4.38,12-1.88,3.36-4.06,6-6.54,7.92-2.44,1.84-5.08,2.76-7.92,2.76s-5.5-.92-7.98-2.76c-2.48-1.92-4.66-4.56-6.54-7.92-1.84-3.36-3.3-7.36-4.38-12-1.08-4.64-1.62-9.8-1.62-15.48s.54-10.84,1.62-15.48c1.08-4.64,2.54-8.64,4.38-12,1.88-3.36,4.06-6,6.54-7.92,2.48-1.84,5.14-2.76,7.98-2.76ZM255.96,28.8c-2.76,0-5.36.92-7.8,2.76-2.44,1.76-4.56,4.28-6.36,7.56-1.84,3.28-3.28,7.2-4.32,11.76-1.04,4.56-1.56,9.6-1.56,15.12s.52,10.56,1.56,15.12c1.04,4.56,2.48,8.48,4.32,11.76,1.8,3.28,3.92,5.8,6.36,7.56,2.44,1.84,5.04,2.76,7.8,2.76s5.36-.92,7.8-2.76c2.4-1.76,4.5-4.28,6.3-7.56,1.84-3.28,3.28-7.2,4.32-11.76,1.04-4.56,1.56-9.6,1.56-15.12s-.52-10.56-1.56-15.12c-1.04-4.56-2.48-8.48-4.32-11.76-1.8-3.28-3.9-5.8-6.3-7.56-2.44-1.84-5.04-2.76-7.8-2.76ZM255.96,98.76c-2.12,0-4.1-.8-5.94-2.4-1.84-1.6-3.44-3.81-4.8-6.61-1.36-2.88-2.44-6.33-3.24-10.34-.76-4.01-1.14-8.45-1.14-13.34s.38-9.34,1.14-13.34c.8-4.01,1.88-7.45,3.24-10.34,1.36-2.81,2.96-5.01,4.8-6.61,1.84-1.6,3.82-2.4,5.94-2.4s4.1.8,5.94,2.4c1.8,1.6,3.38,3.81,4.74,6.61,1.36,2.89,2.44,6.33,3.24,10.34.76,4.01,1.14,8.46,1.14,13.34s-.38,9.34-1.14,13.34c-.8,4.01-1.88,7.46-3.24,10.34-1.36,2.81-2.94,5.01-4.74,6.61-1.84,1.6-3.82,2.4-5.94,2.4ZM255.96,97.8c2.04,0,3.94-.76,5.7-2.28,1.8-1.52,3.36-3.69,4.68-6.49,1.32-2.72,2.34-6.05,3.06-9.98.76-3.93,1.14-8.26,1.14-12.98s-.38-9.06-1.14-12.98c-.72-3.93-1.74-7.25-3.06-9.98-1.32-2.8-2.88-4.97-4.68-6.49-1.76-1.52-3.66-2.28-5.7-2.28s-3.96.76-5.76,2.28c-1.8,1.52-3.36,3.69-4.68,6.49-1.32,2.73-2.34,6.05-3.06,9.98-.76,3.93-1.14,8.26-1.14,12.98s.38,9.06,1.14,12.98c.72,3.93,1.74,7.25,3.06,9.98,1.32,2.81,2.88,4.97,4.68,6.49s3.72,2.28,5.76,2.28Z"/>
  <path class="cls-1" d="M288.9,51.96l11.7,18.24h.06c.96,1.68,1.68,3.8,2.16,6.36.44,2.48.68,4.96.72,7.44,0,2.8-.3,5.44-.9,7.92-.6,2.4-1.4,4.52-2.4,6.36-1,1.84-2.18,3.32-3.54,4.44-1.32,1.04-2.74,1.56-4.26,1.56-.88,0-1.82-.12-2.82-.36-1.04-.24-2.02-.6-2.94-1.08-.96-.48-1.88-1.12-2.76-1.92-.84-.8-1.56-1.72-2.16-2.76l-.06-.12v-.12l-.18-2.16-.06-2.52c0-1.68.08-3.6.24-5.76.16-2.08.4-4.04.72-5.88l.06-.36h2.04v.48l-.12,1.8v1.2c0,4.08.66,7.24,1.98,9.48,1.28,2.32,2.98,3.48,5.1,3.48h.42c2.24-.16,3.98-1.24,5.22-3.24,1.24-2,1.86-4.72,1.86-8.16,0-1.52-.14-2.96-.42-4.32-.28-1.36-.76-2.6-1.44-3.72l-11.64-18h-.06c-1.16-2.08-1.96-4.36-2.4-6.84-.4-2.4-.62-4.72-.66-6.96,0-2.56.26-5,.78-7.32.56-2.24,1.3-4.2,2.22-5.88.96-1.6,2.08-2.92,3.36-3.96,1.24-.96,2.6-1.44,4.08-1.44,1.32,0,2.46.12,3.42.36.92.16,1.72.4,2.4.72l2.34-.12.24.12v.48l.18,14.64v.48h-2.16v-.48c0-3.04-.48-5.44-1.44-7.2-.96-1.68-2.46-2.52-4.5-2.52-.88,0-1.72.24-2.52.72-.76.56-1.44,1.28-2.04,2.16-.56.88-1,1.88-1.32,3-.32,1.12-.48,2.36-.48,3.72,0,1.28.14,2.64.42,4.08.24,1.36.76,2.68,1.56,3.96ZM288.66,52.68h-.06c-.84-1.44-1.42-2.92-1.74-4.44-.28-1.44-.42-2.88-.42-4.32,0-1.52.18-2.92.54-4.2.36-1.28.86-2.4,1.5-3.36.6-.96,1.32-1.68,2.16-2.16.8-.56,1.68-.84,2.64-.84,2.2,0,3.82.96,4.86,2.88,1,1.76,1.52,4.2,1.56,7.32h1.2l-.18-13.8h-2.16c-.68-.27-1.48-.51-2.4-.72-.92-.16-2.04-.24-3.36-.24-1.4,0-2.72.48-3.96,1.44-1.2.88-2.24,2.12-3.12,3.72-.92,1.52-1.62,3.4-2.1,5.64-.52,2.16-.78,4.44-.78,6.84.04,2.08.26,4.32.66,6.72.36,2.32,1.12,4.44,2.28,6.36l11.64,18c.72,1.28,1.24,2.64,1.56,4.08.32,1.44.48,3,.48,4.68,0,3.76-.68,6.72-2.04,8.88-1.36,2.16-3.2,3.32-5.52,3.48h-.42c-2.2,0-4.02-1.2-5.46-3.6-1.4-2.48-2.1-5.92-2.1-10.32l.06-1.2.06-1.32h-1.2c-.28,1.68-.5,3.52-.66,5.52-.16,2-.24,3.84-.24,5.52l.06,2.4.18,1.92c.52.96,1.18,1.8,1.98,2.52.8.72,1.66,1.32,2.58,1.8.96.48,1.92.84,2.88,1.08,1,.24,1.94.36,2.82.36,1.44,0,2.82-.52,4.14-1.56,1.28-.96,2.4-2.32,3.36-4.08.96-1.76,1.72-3.84,2.28-6.24.56-2.32.84-4.8.84-7.44-.04-2.32-.28-4.72-.72-7.2-.4-2.4-1.08-4.36-2.04-5.88l-11.64-18.24Z"/>
  <path class="cls-1" d="M316.62,51.96l11.7,18.24h.06c.96,1.68,1.68,3.8,2.16,6.36.44,2.48.68,4.96.72,7.44,0,2.8-.3,5.44-.9,7.92-.6,2.4-1.4,4.52-2.4,6.36-1,1.84-2.18,3.32-3.54,4.44-1.32,1.04-2.74,1.56-4.26,1.56-.88,0-1.82-.12-2.82-.36-1.04-.24-2.02-.6-2.94-1.08-.96-.48-1.88-1.12-2.76-1.92-.84-.8-1.56-1.72-2.16-2.76l-.06-.12v-.12l-.18-2.16-.06-2.52c0-1.68.08-3.6.24-5.76.16-2.08.4-4.04.72-5.88l.06-.36h2.04v.48l-.12,1.8v1.2c0,4.08.66,7.24,1.98,9.48,1.28,2.32,2.98,3.48,5.1,3.48h.42c2.24-.16,3.98-1.24,5.22-3.24,1.24-2,1.86-4.72,1.86-8.16,0-1.52-.14-2.96-.42-4.32-.28-1.36-.76-2.6-1.44-3.72l-11.64-18h-.06c-1.16-2.08-1.96-4.36-2.4-6.84-.4-2.4-.62-4.72-.66-6.96,0-2.56.26-5,.78-7.32.56-2.24,1.3-4.2,2.22-5.88.96-1.6,2.08-2.92,3.36-3.96,1.24-.96,2.6-1.44,4.08-1.44,1.32,0,2.46.12,3.42.36.92.16,1.72.4,2.4.72l2.34-.12.24.12v.48l.18,14.64v.48h-2.16v-.48c0-3.04-.48-5.44-1.44-7.2-.96-1.68-2.46-2.52-4.5-2.52-.88,0-1.72.24-2.52.72-.76.56-1.44,1.28-2.04,2.16-.56.88-1,1.88-1.32,3-.32,1.12-.48,2.36-.48,3.72,0,1.28.14,2.64.42,4.08.24,1.36.76,2.68,1.56,3.96ZM316.38,52.68h-.06c-.84-1.44-1.42-2.92-1.74-4.44-.28-1.44-.42-2.88-.42-4.32,0-1.52.18-2.92.54-4.2.36-1.28.86-2.4,1.5-3.36.6-.96,1.32-1.68,2.16-2.16.8-.56,1.68-.84,2.64-.84,2.2,0,3.82.96,4.86,2.88,1,1.76,1.52,4.2,1.56,7.32h1.2l-.18-13.8h-2.16c-.68-.27-1.48-.51-2.4-.72-.92-.16-2.04-.24-3.36-.24-1.4,0-2.72.48-3.96,1.44-1.2.88-2.24,2.12-3.12,3.72-.92,1.52-1.62,3.4-2.1,5.64-.52,2.16-.78,4.44-.78,6.84.04,2.08.26,4.32.66,6.72.36,2.32,1.12,4.44,2.28,6.36l11.64,18c.72,1.28,1.24,2.64,1.56,4.08.32,1.44.48,3,.48,4.68,0,3.76-.68,6.72-2.04,8.88-1.36,2.16-3.2,3.32-5.52,3.48h-.42c-2.2,0-4.02-1.2-5.46-3.6-1.4-2.48-2.1-5.92-2.1-10.32l.06-1.2.06-1.32h-1.2c-.28,1.68-.5,3.52-.66,5.52-.16,2-.24,3.84-.24,5.52l.06,2.4.18,1.92c.52.96,1.18,1.8,1.98,2.52.8.72,1.66,1.32,2.58,1.8.96.48,1.92.84,2.88,1.08,1,.24,1.94.36,2.82.36,1.44,0,2.82-.52,4.14-1.56,1.28-.96,2.4-2.32,3.36-4.08.96-1.76,1.72-3.84,2.28-6.24.56-2.32.84-4.8.84-7.44-.04-2.32-.28-4.72-.72-7.2-.4-2.4-1.08-4.36-2.04-5.88l-11.64-18.24Z"/>
</svg>